<svg xmlns="http://www.w3.org/2000/svg" xmlns:xlink="http://www.w3.org/1999/xlink" width="189" zoomAndPan="magnify" viewBox="0 0 141.75 141.750002" height="189" preserveAspectRatio="xMidYMid meet" version="1.2"><defs><filter x="0%" y="0%" width="100%" filterUnits="objectBoundingBox" id="4765557d4b" height="100%"><feColorMatrix values="0 0 0 0 1 0 0 0 0 1 0 0 0 0 1 0 0 0 1 0" type="matrix" in="SourceGraphic"/></filter><clipPath id="25a06ce619"><path d="M 0.316406 0.246094 L 135.097656 0.246094 L 135.097656 89.347656 L 0.316406 89.347656 Z M 0.316406 0.246094 "/></clipPath><clipPath id="a9129a59df"><rect x="0" width="136" y="0" height="90"/></clipPath></defs><g id="22c3a10b0f"><g mask="url(#ac6deb9791)" transform="matrix(1,0,0,1,3,26)"><g clip-path="url(#a9129a59df)"><g clip-rule="nonzero" clip-path="url(#25a06ce619)"><path style=" stroke:none;fill-rule:nonzero;fill:#000000;fill-opacity:1;" d="M 57.574219 1.164062 C 60.960938 0.273438 65.347656 1.519531 67.257812 1.863281 C 69.976562 2.664062 76.578125 2.210938 77.558594 2.367188 C 77.164062 2.363281 72.109375 2.300781 71.671875 2.472656 C 72.449219 2.75 72.882812 2.636719 73.644531 2.65625 C 80.746094 2.59375 75.601562 2.398438 90.765625 5.582031 C 91.417969 5.722656 92.089844 5.773438 92.722656 5.984375 C 92.722656 5.984375 97.390625 9.296875 97.390625 9.296875 C 99.382812 9.957031 104.96875 11.503906 105.066406 11.515625 C 105.234375 11.804688 105.042969 11.578125 107.160156 13.699219 C 107.449219 13.996094 107.558594 14.5 107.992188 14.628906 C 112.277344 16.453125 109.371094 14.722656 114.621094 18.269531 C 114.667969 18.300781 116.800781 19.707031 116.855469 19.71875 C 116.871094 19.773438 119.734375 23.3125 120.464844 24.164062 C 120.480469 24.214844 122.023438 28.046875 122.324219 28.4375 C 125.210938 30.5 124.875 29.121094 127.992188 33.40625 C 129.023438 37.800781 128.453125 36.914062 130.117188 39.621094 C 130.324219 39.902344 130.390625 40.253906 130.484375 40.585938 C 131.96875 45.222656 131.574219 43.929688 131.636719 44.964844 C 134.84375 49.65625 134.757812 59.558594 135.011719 60.214844 C 135.101562 61.15625 134.070312 68.039062 134.054688 68.089844 C 132.722656 72.636719 132.53125 72.21875 133.304688 75.671875 C 133.386719 75.921875 132.898438 77.949219 132.789062 78.640625 C 131.820312 80.992188 130.257812 82.707031 126.855469 87.335938 C 126.855469 87.335938 123.710938 88.769531 123.710938 88.769531 C 123.710938 88.769531 119.597656 89.316406 119.597656 89.316406 C 119.339844 89.15625 117.972656 88.59375 117.429688 88.230469 C 116.3125 88.011719 115.1875 87.824219 114.066406 87.621094 C 111.835938 87.421875 109.515625 85.492188 108.289062 85.351562 C 106.246094 85.042969 104.199219 84.835938 102.15625 84.5625 C 101.996094 84.488281 98.796875 82.832031 98.789062 82.824219 C 98.097656 81.78125 97.390625 80.742188 96.710938 79.691406 C 95.964844 79.988281 94.355469 79.539062 93.820312 79.542969 C 93.429688 79.257812 93.046875 78.960938 92.648438 78.6875 C 86.671875 81.351562 83.4375 80.640625 81.9375 80.914062 C 78.425781 82.660156 80.355469 82.335938 74.613281 82.289062 C 74.351562 82.203125 74.078125 82.226562 73.808594 82.207031 C 73.558594 82.113281 72.449219 82.074219 72.183594 82.074219 C 71.875 82.234375 70.257812 83.417969 70.222656 83.453125 C 70.101562 83.496094 68.0625 83.925781 67.949219 83.945312 C 67.386719 83.863281 64.785156 84.003906 62.472656 82.910156 C 62.328125 82.828125 62.195312 82.984375 62.066406 83.035156 C 61.542969 83.402344 60.898438 83.558594 60.40625 83.96875 C 60.398438 83.96875 57.902344 84.847656 57.847656 84.875 C 56.894531 84.890625 55.941406 84.867188 54.988281 84.882812 C 53.996094 85.421875 49.296875 86.574219 45.109375 85.679688 C 38.59375 83.984375 41.066406 84.300781 37.449219 82.855469 C 37.269531 82.722656 34.953125 80.609375 34.894531 80.539062 C 33.679688 79.152344 35.09375 81.527344 32.222656 76.75 C 31.800781 76.75 31.378906 76.75 30.960938 76.75 C 30.960938 76.75 29.550781 75.246094 29.550781 75.246094 C 29.347656 74.644531 29.226562 74.015625 29.019531 73.410156 C 29 72.429688 29.019531 71.449219 29.011719 70.46875 C 28.773438 70.464844 26.925781 70.34375 26.730469 70.242188 C 13.972656 64.316406 12.972656 66.851562 6.730469 63.820312 C 5.976562 63.394531 5.582031 63.496094 5.128906 62.929688 C 3.410156 60.429688 3.863281 62.800781 2.898438 58.640625 C 2.871094 55.734375 2.9375 55.714844 2.847656 55.59375 C 1.738281 53.824219 1.789062 53.492188 1.222656 52.699219 C 1.089844 52.199219 0.320312 48.882812 0.8125 47.542969 C 0.839844 46.410156 0.945312 46.511719 3.683594 41.175781 C 3.796875 40.824219 3.574219 40.492188 3.5 40.15625 C 2.949219 37.210938 3.128906 37.398438 3.734375 34.886719 C 3.734375 34.886719 5.613281 31.882812 5.613281 31.882812 C 5.859375 31.730469 8.183594 29.527344 8.234375 29.484375 C 8.515625 29.371094 8.808594 29.269531 9.09375 29.164062 C 9.113281 27.402344 8.933594 27.949219 9.628906 25.050781 C 10.902344 23.691406 10.089844 23.691406 16.40625 19.417969 C 16.667969 19.003906 17.421875 18.527344 17.820312 18.097656 C 17.871094 18.066406 20.960938 15.3125 21.683594 15.070312 C 22.59375 14.933594 25.90625 13.875 26.433594 13.792969 C 26.734375 13.773438 27.042969 13.828125 27.332031 13.730469 C 27.796875 13.730469 28.238281 13.5625 28.699219 13.5625 C 29.207031 12.90625 29.839844 12.363281 30.671875 11.308594 C 34.96875 8.917969 31.867188 9.691406 36.640625 8.871094 C 37.070312 8.765625 37.523438 8.699219 37.957031 8.824219 C 37.957031 8.824219 39.324219 8.925781 39.324219 8.925781 C 39.78125 9.070312 40.257812 8.9375 40.722656 8.914062 C 41 8.394531 42.226562 7.527344 42.757812 7.015625 C 47.570312 4.640625 46.632812 5.027344 52.535156 5.074219 C 52.742188 5.164062 52.949219 5.253906 53.167969 5.3125 C 53.339844 4.914062 55.597656 1.707031 55.84375 1.644531 C 56.417969 1.480469 57.011719 1.378906 57.574219 1.164062 M 59.324219 1.882812 C 58.933594 1.972656 58.539062 2.0625 58.15625 2.171875 C 57.914062 2.15625 57.683594 2.226562 57.472656 2.332031 C 56.929688 2.4375 54.839844 5.484375 54.792969 5.757812 C 54.738281 5.675781 54.53125 5.65625 54.511719 5.773438 C 54.558594 5.847656 54.699219 5.914062 54.773438 5.847656 C 55.144531 6.011719 55.539062 6.121094 55.90625 6.285156 C 56.148438 6.378906 56.421875 6.535156 56.675781 6.398438 C 56.675781 6.398438 60.039062 5.167969 60.753906 4.867188 C 60.804688 4.839844 64.394531 4.15625 68.644531 5.042969 C 69.460938 5.097656 72.003906 5 73.074219 5.105469 C 72.921875 5.167969 72.769531 5.21875 72.613281 5.273438 C 72.351562 5.269531 72.09375 5.328125 71.839844 5.394531 C 67.070312 6.71875 67.015625 6.152344 64.898438 6.105469 C 64.453125 5.875 63.9375 6.070312 63.46875 6.082031 C 60.707031 6.050781 60.246094 6.195312 56.75 8.011719 C 56.746094 8.011719 52.359375 6.40625 52.277344 6.386719 C 51.933594 6.222656 47.492188 6.261719 47.285156 6.394531 C 46.6875 6.546875 46.164062 6.878906 45.609375 7.136719 C 44.453125 7.671875 44.691406 7.144531 43.601562 8.304688 C 43.601562 8.304688 41.902344 9.933594 41.902344 9.933594 C 41.902344 9.933594 37.089844 10.179688 35.980469 10.285156 C 32.617188 12.367188 33.585938 11.613281 31.574219 13.402344 C 31.152344 13.890625 30.515625 14.179688 30.21875 14.773438 C 28.78125 17.589844 29.234375 16.800781 28.421875 17.101562 C 28.214844 17.085938 27.992188 17.066406 27.800781 17.179688 C 27.75 17.179688 25.441406 17.492188 25.359375 17.523438 C 21.472656 20.160156 18.964844 21.640625 17.347656 25.296875 C 17.503906 25.386719 17.660156 25.472656 17.820312 25.5625 C 14.058594 31.398438 10.066406 30.882812 9.519531 35.046875 C 9.390625 35.269531 9.382812 35.539062 9.523438 35.761719 C 9.597656 36.105469 9.691406 36.453125 9.8125 36.785156 C 9.8125 36.785156 13.359375 37.246094 13.359375 37.246094 C 13.5 36.3125 13.570312 36.511719 13.601562 36.03125 C 13.695312 35.765625 13.726562 35.464844 13.90625 35.238281 C 14.175781 34.921875 15.554688 32.621094 15.804688 32.335938 C 15.824219 32.316406 18.15625 30.449219 18.226562 30.40625 C 18.535156 30.269531 18.878906 30.242188 19.203125 30.140625 C 19.375 30.140625 19.546875 30.140625 19.722656 30.136719 C 19.910156 29.453125 19.769531 27.855469 20.246094 26.871094 C 20.652344 26.484375 21.089844 25.671875 22.074219 24.429688 C 23.316406 23.457031 24.894531 21.871094 25.722656 21.359375 C 25.773438 21.335938 30.03125 19.316406 30.507812 19.15625 C 27.136719 21.929688 22.367188 23.902344 21.570312 28.175781 L 21.574219 28.113281 C 21.515625 28.554688 21.554688 29.007812 21.464844 29.445312 L 21.535156 29.449219 C 21.851562 29.613281 21.726562 29.492188 24.78125 29.964844 L 24.722656 29.964844 C 25.113281 30.003906 25.503906 30.035156 25.898438 30.039062 C 26.707031 29.027344 27.269531 28.546875 27.34375 25.53125 C 27.535156 26.378906 27.5 26.628906 27.675781 27.117188 C 27.742188 28.507812 28.097656 26.652344 27.625 30.6875 C 31.40625 33.351562 26.214844 31.171875 35.359375 31.246094 C 35.359375 31.246094 36.621094 31.46875 39.402344 31.789062 C 40.742188 29.054688 40.367188 29.109375 40.796875 28.097656 C 40.808594 28.148438 40.800781 30.734375 40.800781 30.785156 C 40.792969 31.835938 42.335938 34.71875 42.5 35.367188 C 42.558594 35.820312 42.5625 36.292969 42.726562 36.722656 C 42.984375 40.851562 45.46875 43.640625 45.707031 44.003906 C 41.3125 41.53125 42.523438 34.792969 39.253906 33.535156 C 37.25 32.855469 39.519531 32.9375 31.816406 32.949219 C 31.226562 32.933594 30.796875 33.472656 29.457031 34.265625 C 29.085938 34.460938 27.5625 38.523438 27.554688 38.636719 C 27.070312 42.492188 27.003906 41.6875 27.289062 42.339844 C 27.519531 42.761719 27.59375 43.273438 27.90625 43.652344 C 27.78125 43.769531 28 43.988281 28.121094 43.867188 C 29.074219 44.855469 33.542969 45.984375 35.730469 48.679688 C 32.503906 47.875 28.097656 45.789062 28.035156 45.730469 C 25.851562 43.667969 26.824219 45.097656 25.847656 43.355469 C 25.800781 43.054688 25.292969 41.726562 25.128906 41.410156 C 25.121094 41.316406 25.117188 41.222656 25.113281 41.128906 C 23.628906 41.105469 21.609375 41.121094 21.609375 41.121094 C 21.957031 40.929688 24.367188 40.054688 25.050781 39.890625 C 25.050781 39.890625 26.421875 35.605469 26.421875 35.605469 C 26.539062 35.449219 26.585938 35.261719 26.597656 35.066406 C 26.621094 35.015625 27.359375 33.691406 27.542969 33.441406 C 26.671875 32.425781 26.625 32.148438 26.335938 32.070312 C 23.570312 31.246094 23.417969 30.667969 20.96875 31.285156 C 20.65625 31.277344 19.578125 31.40625 19.1875 31.589844 C 17.898438 32.78125 16.128906 34.265625 16.035156 34.5625 C 15.59375 35.96875 14.566406 38.347656 14.257812 39.554688 C 14.082031 39.851562 14.125 43.277344 14.25 43.527344 C 14.402344 44.398438 14.699219 45.234375 14.917969 46.085938 C 15 46.5 15.402344 46.699219 15.71875 46.910156 C 16.226562 47.226562 16.671875 47.632812 17.171875 47.964844 C 18.703125 48.148438 19.339844 47.871094 20.863281 47.421875 C 23.371094 55.042969 22.617188 52.402344 24.777344 55.871094 C 28.097656 57.941406 34.613281 59.117188 36.226562 55.527344 C 36.265625 55.222656 36.328125 54.828125 36.074219 54.601562 C 34.710938 53.21875 34.925781 52.84375 30.367188 51.824219 C 30.035156 51.714844 30.054688 51.773438 28.050781 51.753906 C 27.746094 51.742188 27.652344 51.832031 26.652344 52.070312 C 26.214844 52.171875 25.765625 52.207031 25.324219 52.285156 C 25.777344 52.042969 26.097656 51.605469 26.5625 51.394531 C 29.878906 50.496094 30.65625 51.035156 32.554688 51.027344 C 34.625 51.074219 38.929688 54.976562 39.609375 55.035156 C 39.988281 55.191406 41.28125 55.265625 41.332031 55.265625 C 41.449219 55.3125 41.582031 55.324219 41.699219 55.261719 C 43.292969 55.121094 42.992188 55.046875 43.457031 54.121094 C 43.582031 53.917969 43.472656 53.679688 43.417969 53.472656 C 43.464844 52.75 42.621094 52.25 42.257812 51.734375 C 37.191406 45.972656 38.746094 47.867188 38.0625 46.550781 C 33.179688 36.871094 35.847656 41.464844 34.8125 38.945312 C 34.757812 38.839844 34.703125 38.761719 32.917969 37.957031 C 33.679688 37.984375 34.363281 38.378906 35.113281 38.457031 C 35.671875 37.769531 36.066406 36.25 36.632812 35.667969 C 36.367188 38.121094 35.910156 39.390625 37.484375 42.828125 C 37.527344 43.125 37.632812 43.40625 37.785156 43.660156 C 38.085938 45.355469 38.820312 45.796875 40.449219 48.226562 C 40.601562 48.441406 43.886719 51.085938 43.933594 51.105469 C 48.320312 51.574219 45.566406 51.421875 47.878906 50.945312 C 48.066406 50.890625 48.285156 50.902344 48.429688 50.75 C 49.285156 49.925781 49.171875 49.96875 49.167969 49.113281 C 48.980469 47.34375 49.535156 48.671875 48.363281 44.449219 C 48.304688 44.058594 48.757812 42.402344 48.882812 41.285156 C 49.199219 40.8125 51.453125 37.300781 51.683594 36.878906 C 52.695312 33.527344 53.503906 30.371094 50.480469 28.644531 C 48.226562 27.585938 49.121094 27.625 45.554688 27.671875 C 44.539062 25.910156 42.503906 23.5 42.453125 23.449219 C 42.222656 23.390625 39.6875 22.949219 39.164062 23.292969 C 36.785156 24.9375 37.328125 23.929688 36.636719 26.160156 C 36.511719 26.546875 36.378906 26.929688 36.28125 27.324219 C 36.171875 26.683594 36.511719 24.800781 36.476562 24.277344 C 36.535156 24.109375 36.550781 23.902344 36.699219 23.78125 C 37.296875 23.265625 38.527344 22.433594 38.890625 21.976562 C 39.515625 21.816406 40.894531 22.292969 41.847656 22.308594 C 42.195312 22.417969 42.566406 22.394531 42.917969 22.480469 C 43.382812 22.757812 43.757812 23.160156 44.167969 23.507812 C 46.644531 25.34375 44.039062 25.003906 52.410156 27.527344 C 52.914062 27.691406 52.898438 28.03125 53.699219 28.628906 C 54.863281 27.21875 56.652344 24.664062 59.871094 24.636719 C 59.710938 24.320312 59.9375 23.96875 59.941406 23.640625 C 60.085938 23.226562 60.171875 22.792969 60.234375 22.359375 C 60.359375 22.070312 60.457031 21.765625 60.589844 21.476562 C 63.0625 17.027344 61.230469 19.371094 63.148438 17.242188 C 63.945312 16.464844 64.695312 15.640625 65.53125 14.902344 C 62.414062 19.472656 62.492188 20.453125 61.421875 24.554688 C 61.761719 24.511719 62.101562 24.53125 62.445312 24.523438 C 62.078125 24.628906 61.71875 24.746094 61.351562 24.832031 C 61.335938 24.910156 61.324219 24.992188 61.308594 25.070312 C 61.203125 25.054688 61.101562 25.039062 60.996094 25.027344 C 61 24.875 60.640625 24.863281 60.621094 25.003906 C 60.480469 25 60.34375 25.023438 60.214844 25.074219 C 59.753906 25.113281 58.242188 25.511719 57.847656 25.683594 C 55.757812 27.390625 55.746094 28.261719 54.351562 30.367188 C 54.269531 30.484375 54.296875 30.375 54.296875 33.226562 C 54.3125 33.597656 53.507812 35.761719 53.410156 36.011719 C 52.695312 37.773438 54.015625 35.496094 51.082031 39.667969 C 50.871094 39.972656 50.566406 40.21875 50.445312 40.582031 C 50.234375 41.121094 49.867188 41.605469 49.769531 42.183594 C 49.769531 42.238281 49.6875 44.710938 49.871094 45.050781 C 50.203125 47.203125 50.460938 47.296875 50.792969 47.765625 C 51.027344 48.023438 51.175781 48.363281 51.46875 48.5625 C 53.132812 48.683594 53.167969 48.511719 53.355469 48.300781 C 53.59375 48.019531 53.882812 47.789062 54.097656 47.488281 C 54.53125 46.933594 55.167969 45.734375 55.417969 45.488281 C 55.472656 45.4375 57.28125 44.074219 57.609375 43.914062 C 60.835938 42.300781 60.121094 41.386719 62.015625 37.390625 C 63.578125 34.453125 63.59375 32.890625 67.714844 28.621094 C 67.464844 29.246094 66.996094 29.746094 66.710938 30.347656 C 66.382812 30.707031 64.417969 34.128906 64.085938 34.515625 C 63.195312 36.566406 62.058594 41.914062 59.585938 44.417969 C 58.664062 44.835938 57.75 45.265625 56.859375 45.746094 C 56.859375 45.746094 56.042969 47.074219 56.042969 47.074219 L 56.042969 47.007812 C 56 47.5 56.007812 47.996094 56.035156 48.488281 L 56.035156 48.421875 C 56.175781 48.585938 56.335938 48.730469 56.480469 48.886719 C 59.257812 48.703125 55.527344 49.410156 62.40625 47.3125 C 63.269531 47.0625 66.246094 45.257812 67.09375 44.914062 C 67.105469 44.90625 68.835938 42.992188 68.90625 42.886719 C 68.980469 42.78125 70.605469 39.773438 70.859375 39.546875 C 70.53125 40.621094 68.96875 44.921875 68.96875 44.921875 L 68.945312 44.855469 C 68.957031 45.371094 68.355469 45.136719 72.011719 45.644531 C 72.070312 45.613281 72.132812 45.570312 72.1875 45.527344 C 73.066406 44.402344 74.765625 43.675781 75.320312 42.363281 C 77.421875 39.027344 78.90625 34.484375 79.5625 30.636719 C 79.613281 30.492188 81.128906 28.699219 81.472656 28.351562 C 82.6875 27.707031 89 24.308594 89.890625 23.265625 C 91.59375 20.492188 90.964844 18.65625 91.277344 17.792969 C 91.261719 17.769531 91.234375 17.714844 91.222656 17.691406 C 91.066406 16.6875 91.09375 15.804688 90.96875 15.398438 C 90.976562 15.335938 90.992188 15.214844 91.003906 15.152344 C 91.203125 15.613281 92.082031 20.289062 92.09375 20.34375 C 92.207031 20.308594 97.386719 19.796875 98.453125 20.054688 C 98.453125 20.054688 102.875 20.429688 102.875 20.429688 C 102.871094 20.582031 103.15625 20.550781 103.257812 20.507812 C 103.382812 20.578125 106.441406 21.34375 106.496094 21.351562 L 106.488281 21.410156 C 106.523438 21.40625 106.589844 21.402344 106.621094 21.398438 C 106.652344 17.75 105.59375 16.679688 105.464844 15.449219 C 105.476562 15.464844 106.90625 17.695312 107.566406 18.617188 C 107.613281 19.359375 108.0625 21.1875 108.160156 21.414062 C 109.726562 22.992188 111.101562 24.074219 111.289062 24.398438 C 111.242188 24.472656 111.3125 24.570312 111.367188 24.625 C 111.445312 24.628906 111.492188 24.5 111.464844 24.433594 L 111.519531 24.449219 C 111.730469 23.960938 112.109375 23.53125 112.21875 23.011719 C 112.382812 22.996094 112.320312 22.683594 112.296875 22.558594 C 112.417969 22.214844 112.457031 21.835938 112.519531 21.476562 L 112.601562 21.476562 C 112.59375 20.886719 112.613281 20.292969 112.59375 19.703125 L 112.609375 19.648438 C 112.632812 19.753906 113.574219 22.195312 113.683594 22.457031 C 113.738281 22.484375 115.78125 23.128906 116.003906 23.089844 C 115.984375 23.226562 116.238281 23.230469 116.316406 23.160156 C 116.316406 23.160156 116.6875 23.265625 118.261719 24.089844 C 118.421875 24.167969 118.578125 24.285156 118.769531 24.265625 C 115.539062 19.816406 115.117188 19.589844 108.355469 15.597656 C 106.46875 15.273438 107.472656 14.667969 101.566406 14.453125 C 101.675781 14.40625 101.792969 14.367188 101.910156 14.324219 C 102.246094 14.304688 104.480469 14.074219 105.324219 13.84375 C 105.449219 13.882812 105.765625 13.941406 105.800781 13.785156 C 106.378906 13.945312 106.59375 14.179688 107.332031 14.378906 C 107.332031 14.378906 106.191406 13.4375 105.527344 12.820312 C 104.882812 12.375 104.703125 11.726562 103.085938 11.71875 L 103.082031 11.660156 C 102.636719 11.644531 102.210938 11.511719 101.769531 11.480469 C 101.621094 11.402344 101.453125 11.421875 101.296875 11.433594 C 101.289062 11.289062 101.015625 11.320312 100.914062 11.363281 C 100.890625 11.34375 100.839844 11.300781 100.816406 11.28125 C 100.683594 11.28125 100.554688 11.285156 100.425781 11.28125 L 100.425781 11.214844 C 99.390625 11.148438 98.378906 10.769531 97.332031 10.839844 C 96.820312 10.964844 93.863281 11.476562 93.195312 11.507812 L 93.191406 11.574219 C 93.039062 11.578125 92.878906 11.558594 92.738281 11.628906 C 92.179688 11.664062 90.550781 11.953125 90.539062 11.953125 L 90.539062 12.027344 C 90.484375 12.027344 86.367188 13.699219 82.632812 16.363281 C 82.582031 16.410156 81.375 19.113281 81.183594 19.640625 C 81.066406 20.015625 80.617188 20.109375 80.449219 20.441406 C 80.136719 20.601562 78.671875 21.769531 78.441406 22.085938 C 77.863281 22.40625 74.65625 24.484375 74.65625 24.484375 C 74.601562 24.507812 70.515625 26.652344 70.335938 26.804688 C 70.179688 26.847656 70.023438 26.898438 69.863281 26.9375 C 70.433594 26.441406 74.96875 23.09375 75.613281 22.636719 C 77.84375 20.910156 75.683594 22.917969 80.308594 18.320312 C 80.429688 18.195312 80.550781 18.058594 80.605469 17.886719 C 81.574219 15.292969 81.632812 16.738281 81.953125 13.179688 C 82.109375 13.816406 82.195312 14.46875 82.308594 15.117188 C 83.007812 14.761719 85.210938 12.925781 87.015625 11.53125 C 87.34375 11.480469 88.628906 11.097656 88.695312 11.074219 C 88.90625 11.054688 89.117188 11.007812 89.308594 10.914062 C 89.5 10.882812 89.695312 10.847656 89.875 10.777344 C 90.085938 10.757812 90.296875 10.710938 90.488281 10.621094 C 90.65625 10.59375 90.824219 10.554688 90.980469 10.484375 C 91.191406 10.464844 91.402344 10.417969 91.59375 10.324219 C 92.535156 10.148438 93.449219 9.855469 94.363281 9.585938 C 94.578125 9.726562 94.457031 9.296875 94.316406 9.480469 C 94.214844 9.253906 94.015625 9.097656 93.839844 8.933594 C 88.808594 4.835938 95.683594 8.71875 79.503906 4.527344 C 78.660156 4.363281 77.839844 4.082031 76.988281 3.953125 C 76.734375 3.839844 75.480469 3.535156 75.050781 3.496094 C 74.882812 3.429688 71.382812 3.605469 71.125 3.640625 C 66.40625 4.238281 66.742188 3.039062 64.277344 2.480469 C 63.84375 2.25 60.199219 1.878906 60.148438 1.871094 C 59.882812 1.757812 59.59375 1.832031 59.324219 1.882812 M 54.039062 5.59375 C 54.054688 5.832031 54.269531 5.484375 54.039062 5.59375 M 54.242188 5.667969 C 54.25 5.910156 54.460938 5.554688 54.242188 5.667969 M 107.375 14.398438 C 107.421875 14.445312 107.421875 14.445312 107.375 14.398438 M 23.972656 16.058594 C 22.628906 16.703125 21.324219 17.429688 19.957031 18.019531 C 19.839844 18.066406 12.828125 24.207031 12.773438 24.261719 C 12.621094 24.328125 12.5 24.445312 12.398438 24.578125 C 11.257812 25.339844 11.398438 25.339844 11.074219 26.046875 C 10.632812 27.183594 10.34375 26.867188 10.527344 28.648438 C 16.023438 26.929688 15.113281 27.460938 16.191406 25.191406 C 17.183594 22.734375 19.953125 19.449219 20.007812 19.402344 C 23.238281 17.207031 23.996094 17.046875 26.445312 15.886719 C 24.46875 15.789062 24.308594 15.917969 23.972656 16.058594 M 97.605469 20.941406 C 96.804688 21.015625 96.011719 21.148438 95.207031 21.199219 C 94.925781 21.292969 94.605469 21.183594 94.339844 21.324219 C 93.054688 21.324219 93.152344 21.402344 91.3125 23.652344 C 87.679688 26.296875 90.371094 24.882812 85.714844 26.914062 C 84.269531 27.46875 85.4375 26.929688 82.597656 29.113281 C 81.320312 30.335938 82.199219 28.984375 80.53125 32.214844 C 80.359375 32.523438 80.289062 32.875 80.117188 33.183594 L 80.132812 33.117188 C 79.417969 34.925781 79.378906 38.589844 75.703125 45.570312 C 76.027344 45.597656 79.597656 44.992188 81.171875 44.089844 C 81.277344 44.03125 84.160156 42.59375 84.25 42.519531 C 84.664062 42.1875 85.835938 41.386719 85.984375 41.316406 C 85.914062 41.5 83.859375 43.722656 83.714844 43.90625 C 83.359375 44.160156 81.789062 44.71875 81.375 45.066406 C 81.285156 45 81.179688 45.117188 81.132812 45.1875 C 81.066406 45.292969 81.25 45.316406 81.300781 45.25 L 81.28125 45.300781 C 83.042969 45.707031 82.691406 46 83.773438 45.917969 C 83.796875 46.058594 84.074219 46.050781 84.171875 45.976562 C 84.820312 46.230469 94.160156 47.304688 96.304688 46.546875 C 97.054688 46.453125 99.417969 45.792969 99.652344 45.753906 C 100.335938 45.34375 100.925781 44.792969 101.621094 44.398438 C 101.898438 44.144531 102.492188 43.183594 102.777344 43.007812 C 102.753906 43.160156 102.71875 43.3125 102.707031 43.46875 C 102.617188 43.6875 102.589844 43.925781 102.546875 44.15625 C 102.46875 44.3125 102.410156 44.476562 102.40625 44.652344 C 102.308594 44.839844 102.253906 45.042969 102.261719 45.253906 C 102.15625 45.316406 99.199219 48.078125 97.519531 48.929688 C 106.082031 52.367188 107.886719 55.300781 109.828125 57.308594 C 109.742188 57.28125 109.65625 57.257812 109.570312 57.234375 C 109.527344 57.113281 104.976562 53.320312 104.738281 53.328125 C 98.492188 49.804688 90.957031 47.980469 89.917969 47.523438 C 89.113281 47.425781 85.261719 46.574219 84.28125 46.441406 C 84.183594 46.421875 76.875 46.089844 76.8125 46.121094 C 76.710938 46.03125 76.640625 46.046875 76.601562 46.167969 C 76.1875 46.125 74.878906 46.335938 74.816406 46.359375 C 74.609375 46.363281 73.164062 46.523438 73.023438 46.59375 C 72.78125 46.59375 69.109375 46.996094 69.035156 47.046875 C 67.355469 47.09375 59.621094 48.910156 57.308594 49.453125 C 43.300781 54.015625 41.703125 56.382812 35.558594 61.140625 C 34.15625 62.117188 34.457031 61.824219 31.488281 66.59375 C 31.125 67.121094 30.5625 69.671875 30.515625 69.90625 C 30.390625 70.855469 30.699219 71.785156 30.738281 72.726562 C 30.742188 72.730469 31.648438 74.171875 31.652344 74.175781 C 33.300781 75.308594 33.261719 74.730469 35.246094 74.929688 C 34.886719 75.199219 34.105469 76.519531 33.644531 76.820312 C 33.84375 77.09375 33.957031 77.425781 34.175781 77.683594 C 35.285156 79.9375 38.253906 81.996094 40.476562 83.148438 C 49.980469 85.539062 48.195312 85.304688 52.269531 84.257812 C 48.671875 81.332031 48.371094 81.261719 48.027344 80.804688 C 50.289062 82.015625 50.25 82.820312 55.625 83.351562 C 56.042969 83.460938 59.460938 82.722656 59.511719 82.695312 C 63.816406 81.261719 62.496094 81.796875 63.472656 81.988281 C 64.179688 82.285156 64.953125 82.386719 65.714844 82.363281 C 65.9375 82.515625 66.226562 82.421875 66.476562 82.460938 C 66.671875 82.542969 66.894531 82.542969 67.089844 82.460938 C 67.292969 82.441406 67.519531 82.488281 67.703125 82.371094 C 69.5 82.4375 69.484375 82.109375 72.785156 79.953125 C 73.59375 80.1875 74.839844 80.722656 75.085938 80.738281 C 75.25 80.855469 78.53125 81.058594 78.648438 81.054688 C 79.417969 80.777344 79.855469 80.757812 82.9375 79.558594 C 83.242188 79.421875 84.289062 79.453125 84.574219 79.355469 C 87.503906 79.210938 87.03125 79.203125 89.863281 78.359375 C 92.992188 77.371094 91.058594 78.742188 94.636719 74.628906 C 94.640625 74.667969 94.652344 74.75 94.65625 74.789062 C 94.640625 74.824219 94.445312 76.234375 94.378906 77.773438 C 94.816406 77.769531 95.238281 77.90625 95.671875 77.949219 C 96.570312 78.195312 97.222656 77.835938 98.417969 77.765625 C 101.859375 76.539062 102.515625 75.757812 103.359375 74.808594 C 105.167969 72.71875 103.875 75.222656 106.96875 70.296875 C 111.28125 63.441406 109.5625 65.488281 111.140625 62.070312 C 111.085938 62.066406 106.007812 61.382812 105.453125 61.292969 C 105.148438 61.222656 93.332031 60.335938 92.273438 61.089844 C 90.832031 61.085938 86.027344 61.988281 85.066406 62.074219 C 84.808594 62.050781 84.5625 61.953125 84.304688 61.96875 C 84.121094 61.847656 83.890625 61.898438 83.6875 61.878906 C 80.855469 61.257812 82.976562 62.167969 79.03125 60.199219 C 78.824219 60.054688 71.351562 60.828125 71.175781 60.9375 C 71.011719 60.9375 70.839844 60.929688 70.683594 60.992188 C 70.382812 61.035156 70.042969 60.921875 69.773438 61.089844 C 68.980469 61.03125 64.300781 61.441406 61.957031 62.179688 C 54.484375 62.25 48.601562 63.742188 42.585938 66.628906 C 40.207031 67.96875 43.015625 65.605469 38.558594 70.5 C 38.292969 71.5625 38.035156 72.632812 37.738281 73.6875 C 37.683594 72.652344 37.730469 71.617188 37.699219 70.585938 C 37.5 70.890625 35.972656 72.964844 35.632812 73.089844 C 36.082031 72.503906 37.597656 70.121094 37.671875 69.96875 C 36.355469 69.851562 37.523438 70.3125 34.824219 68.863281 C 34.707031 68.476562 34.621094 68.058594 34.621094 67.648438 C 35.378906 67.835938 36.136719 68.011719 36.890625 68.199219 C 37.382812 68.160156 37.882812 68.089844 38.351562 67.953125 C 38.472656 67.992188 38.792969 68.039062 38.800781 67.871094 C 39.035156 67.828125 39.195312 67.613281 39.394531 67.492188 C 44.074219 64.152344 39.730469 66.535156 48.109375 63.144531 C 48.46875 63.070312 55.394531 61.246094 56.402344 60.910156 C 55.773438 59.660156 55.609375 59.648438 55.070312 56.808594 C 55.230469 56.300781 56.058594 54.695312 56.207031 54.472656 C 56.289062 55.4375 56.214844 56.410156 56.25 57.375 C 56.492188 57.863281 56.535156 58.421875 56.789062 58.90625 C 56.808594 58.925781 58.703125 60.191406 58.941406 60.292969 C 59.421875 60.464844 61.863281 60.65625 62.082031 60.589844 C 63.511719 60.261719 64.945312 59.941406 66.359375 59.550781 C 66.941406 59.441406 72.070312 60.042969 72.867188 59.457031 C 73.335938 59.46875 78.238281 58.964844 78.574219 58.921875 C 78.765625 58.503906 79.410156 55.976562 79.425781 55.925781 C 80.21875 55.652344 80.964844 55.253906 81.765625 55.003906 C 81.375 55.707031 80.839844 56.316406 80.386719 56.980469 C 80.332031 57.632812 80.238281 58.289062 80.0625 58.925781 C 82.828125 61.300781 83.9375 60.78125 88.917969 60.195312 C 99.269531 59.113281 105.207031 60.050781 105.703125 60.046875 C 105.761719 60.085938 109.402344 60.519531 110.011719 60.480469 L 110.007812 60.574219 C 110.253906 60.574219 110.5 60.570312 110.746094 60.585938 C 110.859375 60.632812 110.984375 60.632812 111.109375 60.644531 C 111.089844 60.589844 110.582031 59.132812 110.542969 58.910156 C 111.105469 59.382812 111.398438 59.554688 112.011719 60.066406 C 113.894531 58.199219 118.628906 56.839844 119.566406 56.09375 C 119.566406 56.09375 121.476562 51.804688 121.53125 51.695312 C 121.820312 51.691406 122.109375 51.6875 122.398438 51.695312 C 122.398438 51.695312 121.019531 56.429688 120.976562 56.535156 C 120.140625 57.011719 119.226562 57.332031 118.378906 57.785156 C 113.246094 60.300781 114.4375 59.648438 113.867188 60.507812 C 110.125 66.457031 111.285156 64.371094 109.910156 69.476562 C 109.738281 70.289062 109.769531 69.667969 110.203125 71.097656 C 110.394531 71.445312 109.847656 71.367188 113.46875 71.363281 C 113.503906 71.398438 118.632812 75.964844 118.761719 76.046875 C 122.722656 76.730469 120.921875 76.910156 122.296875 76.269531 C 123.152344 75.855469 127.363281 71 127.285156 64.882812 C 127.726562 63.929688 126.773438 61.683594 126.582031 61.003906 C 125.285156 61.726562 124.035156 62.542969 122.683594 63.167969 C 126.867188 59.71875 125.261719 61.679688 127.070312 59.097656 C 127.265625 58.703125 127.210938 58.257812 127.214844 57.835938 C 127.257812 57.699219 127.289062 57.5625 127.296875 57.417969 C 127.410156 57.097656 127.355469 56.757812 127.355469 56.429688 L 127.257812 56.433594 C 126.847656 53.929688 127.015625 56.546875 126.609375 52.367188 C 126.574219 51.832031 126.730469 51.304688 126.6875 50.769531 C 126.828125 50.507812 126.761719 50.203125 126.765625 49.921875 C 126.894531 49.386719 126.914062 49.535156 126.324219 48.933594 C 126.144531 48.625 125.585938 48.144531 125.335938 48.15625 C 125.429688 47.964844 125.003906 47.957031 125.097656 48.148438 L 125.042969 48.144531 C 124.851562 48.4375 124.640625 48.71875 124.382812 48.960938 C 122.960938 48.96875 121.539062 48.960938 120.121094 48.964844 L 120.132812 49.042969 L 120.070312 49.042969 C 119.691406 50.027344 118.378906 52.480469 118.222656 52.820312 C 118.167969 52.859375 114.640625 55.042969 114.492188 55.109375 C 114.566406 54.972656 116.875 52.464844 116.929688 52.414062 C 117.128906 52.078125 117.523438 51.875 117.632812 51.484375 C 117.949219 50.652344 118.746094 49.058594 118.710938 48.730469 C 118.859375 48.730469 118.832031 48.449219 118.789062 48.347656 C 118.914062 48.179688 118.789062 48.328125 119.011719 47.042969 C 118.765625 46.609375 117.339844 44.964844 117 44.722656 L 117.0625 44.734375 C 116.964844 44.703125 116.054688 44.453125 115.796875 44.441406 C 115.386719 44.296875 114.949219 44.253906 114.527344 44.152344 C 114.535156 43.71875 114.78125 43.332031 114.742188 42.761719 C 114.777344 42.742188 114.847656 42.699219 114.882812 42.675781 C 118.140625 44.554688 118.140625 43.449219 120.527344 46.953125 C 120.863281 47.015625 121.195312 47.09375 121.527344 47.167969 C 121.804688 47.113281 123.875 46.40625 124.128906 45.957031 C 124.332031 45.648438 124.808594 45.546875 124.867188 45.148438 C 124.953125 44.914062 125.003906 43.046875 125.007812 42.996094 C 125.105469 42.75 125.0625 42.480469 125.070312 42.222656 C 125.199219 42.214844 125.199219 41.828125 125.070312 41.8125 C 125.070312 41.78125 125.066406 41.714844 125.0625 41.679688 C 123.414062 37.214844 123.382812 37.589844 122.929688 37.289062 C 122.03125 36.714844 121.234375 35.992188 120.335938 35.421875 C 119.027344 36.707031 115.238281 41.480469 115.121094 41.664062 C 114.753906 41.808594 114.363281 41.921875 113.996094 42.074219 C 113.808594 42.089844 113.625 42.144531 113.460938 42.230469 C 113.140625 42.289062 112.851562 42.449219 112.546875 42.550781 C 112.449219 43 112.238281 43.410156 112.035156 43.820312 C 111.980469 44.097656 112 44.386719 112.023438 44.664062 C 112.144531 44.964844 112.246094 45.273438 112.3125 45.59375 C 112.304688 45.589844 110.347656 44.726562 110.320312 44.71875 C 110.289062 44.148438 110.316406 43.574219 110.308594 43.003906 C 110.359375 42.960938 111.566406 41.863281 111.726562 41.589844 C 111.847656 41.574219 111.976562 41.578125 112.089844 41.523438 C 114.503906 41.226562 114.378906 40.894531 115.976562 39.339844 C 116.441406 38.882812 116.652344 38.25 117 37.710938 C 118.238281 35.726562 118.113281 35.257812 118.71875 33.746094 C 118.621094 33.527344 118.5625 33.292969 118.558594 33.050781 L 118.523438 33 C 118.066406 30.769531 118.511719 31.652344 115.59375 29.265625 C 111.601562 27.773438 114.171875 27.140625 110.199219 28.304688 C 106.0625 31.207031 109.804688 28.769531 105.949219 33.214844 C 102.859375 37.75 105.167969 33.875 103.078125 38.917969 C 102.960938 39.195312 103.414062 40.273438 103.433594 40.328125 C 103.449219 40.5625 103.5 40.796875 103.589844 41.015625 C 103.589844 41.054688 103.59375 41.128906 103.59375 41.164062 C 103.359375 40.960938 102.210938 39.441406 102.140625 39.261719 C 102.101562 38.585938 101.847656 37.925781 101.910156 37.242188 C 102.050781 37.042969 104.089844 33.152344 106.046875 31.242188 C 106.09375 31.132812 106.53125 29.71875 106.566406 29.464844 C 106.726562 29.148438 106.761719 28.792969 106.894531 28.472656 C 106.941406 28.238281 109.097656 27.28125 109.953125 26.710938 C 109.84375 26.53125 107.597656 23.390625 107.265625 23.269531 C 107.214844 23.25 104.355469 21.964844 104.1875 21.847656 C 104.121094 21.800781 104.050781 21.78125 103.972656 21.785156 L 103.96875 21.695312 C 103.726562 21.695312 103.484375 21.699219 103.242188 21.683594 C 103.203125 21.667969 100.777344 21.289062 100.207031 21.253906 L 100.207031 21.1875 C 99.542969 21.15625 98.890625 20.992188 98.226562 20.9375 C 98.03125 20.851562 97.800781 20.855469 97.605469 20.941406 M 112.839844 24.523438 C 112.515625 24.867188 112.148438 25.179688 111.847656 25.546875 C 111.992188 25.902344 112.15625 26.257812 112.386719 26.570312 C 113.039062 26.550781 113.6875 26.652344 114.332031 26.75 C 115.667969 27.644531 118.464844 29.269531 118.464844 29.269531 C 118.695312 29.554688 119.910156 31.621094 120.105469 31.980469 C 120.253906 32.722656 120.332031 33.484375 120.4375 34.238281 C 120.46875 34.246094 120.535156 34.265625 120.566406 34.277344 L 120.574219 34.316406 C 121.28125 34.59375 121.894531 35.054688 122.597656 35.328125 C 123.105469 35.734375 123.632812 36.109375 124.148438 36.511719 C 124.296875 36.058594 124.332031 35.566406 124.550781 35.140625 C 120.519531 27.03125 122.519531 30.574219 121.21875 28.875 C 121.003906 28.5625 120.691406 28.328125 120.496094 28 C 120.398438 27.917969 120.289062 27.84375 120.175781 27.789062 C 120.394531 28.496094 120.882812 30 120.984375 30.753906 C 120.710938 30.414062 118.5 26.285156 118.472656 26.230469 C 116.238281 24.199219 115.535156 24.421875 113.707031 23.679688 C 113.390625 23.929688 113.132812 24.246094 112.839844 24.523438 M 118.738281 24.296875 C 118.78125 24.34375 118.78125 24.34375 118.738281 24.296875 M 12.445312 29.144531 C 12.195312 29.132812 10.46875 29.632812 10.304688 29.707031 C 7.625 30.917969 8.453125 30.472656 6.597656 32.648438 C 6.277344 33.023438 6.183594 32.871094 5.328125 34.480469 C 4.621094 35.800781 4.695312 35.339844 4.675781 36.105469 C 4.695312 36.734375 4.457031 38.464844 5.210938 39.554688 C 8.859375 39.429688 7.300781 38.171875 8.542969 37.457031 C 7.984375 36.332031 8.230469 36.304688 7.976562 35.226562 C 7.945312 35.058594 7.875 34.863281 8 34.71875 C 9.382812 32.574219 8.851562 32.527344 10.671875 31.117188 C 10.78125 31.035156 12.410156 29.519531 12.664062 29.210938 C 12.933594 29.140625 12.464844 28.9375 12.445312 29.144531 M 123.351562 30.457031 C 125.464844 34.917969 126.898438 35.023438 125.292969 38.019531 C 126.570312 41.410156 126.097656 41.753906 126.601562 43.210938 C 126.613281 43.421875 126.601562 43.636719 126.664062 43.84375 L 126.679688 43.769531 C 126.65625 43.921875 126.703125 43.667969 126.34375 45.421875 C 126.402344 45.730469 127.078125 47.203125 127.453125 48.308594 L 127.492188 48.296875 C 127.542969 48.484375 127.609375 48.671875 127.695312 48.851562 C 127.730469 48.632812 127.765625 48.414062 127.789062 48.195312 C 127.898438 48.078125 128.449219 45.894531 128.535156 44.675781 L 128.457031 44.679688 C 128.492188 43.734375 128 40.328125 127.851562 38.527344 L 127.816406 38.460938 C 127.632812 35.5625 127.105469 34.636719 125.746094 32.101562 C 125.183594 31.632812 123.832031 30.722656 123.582031 30.621094 C 123.597656 30.503906 123.417969 30.511719 123.351562 30.457031 M 9.886719 38.382812 C 8.375 38.96875 8.988281 38.785156 8.621094 40.445312 C 8.609375 40.496094 8.4375 44.574219 7.734375 45.683594 C 6.941406 46.960938 6.230469 48.875 6.441406 50.425781 C 6.757812 52.382812 6.363281 51.296875 7.476562 52.800781 C 7.679688 53.097656 9.800781 54.742188 10.269531 54.882812 C 12.117188 55.53125 12.582031 55.839844 13.417969 56.085938 C 20.265625 58.082031 17.085938 57.820312 21.480469 57.820312 C 20.191406 56.789062 20.519531 56.480469 19.023438 55.941406 C 14.753906 54.652344 14.972656 54.96875 11.636719 52.550781 C 11.273438 52.207031 11.089844 51.726562 10.78125 51.339844 C 10.046875 50.203125 10.707031 51.765625 9.113281 48.144531 C 9.050781 47.355469 9.292969 46.589844 9.34375 45.804688 C 9.648438 45.5 9.9375 45.179688 10.265625 44.898438 C 10.046875 47.027344 9.324219 48.460938 12.308594 52.023438 C 13.390625 53.464844 21.417969 55.433594 22.28125 56.371094 C 25.277344 59.527344 29.269531 60.617188 33.574219 60.820312 C 34.488281 60.875 33.921875 60.78125 35.199219 59.746094 C 35.199219 59.746094 37.003906 58.449219 37.003906 58.449219 C 37.699219 57.5625 37.878906 55.839844 37.921875 55.628906 C 37.660156 55.472656 37.40625 55.308594 37.144531 55.160156 C 36.9375 55.84375 36.777344 57.226562 36.371094 57.515625 C 34.640625 58.828125 35.175781 58.640625 34.441406 58.761719 C 34.117188 58.792969 31.636719 59.03125 31.078125 58.941406 C 26.785156 58.773438 27.777344 58.828125 26.148438 57.824219 C 23.773438 56.386719 24.433594 56.578125 23.472656 55.550781 C 23.261719 55.25 22.953125 55.03125 22.746094 54.726562 C 22.539062 54.277344 22.363281 53.808594 22.140625 53.363281 C 22.074219 53.371094 22.011719 53.375 21.945312 53.382812 C 21.9375 53.363281 20.289062 49.269531 20.289062 49.269531 C 17.785156 48.984375 13.9375 49.453125 12.726562 42.015625 C 12.8125 40.816406 12.871094 39.613281 12.992188 38.417969 C 12.203125 38.699219 10.886719 38.023438 9.886719 38.382812 M 6.714844 40.585938 C 6.117188 40.925781 5.425781 41.074219 4.855469 41.46875 C 4.855469 41.46875 3.558594 43.792969 3.558594 43.792969 C 2.4375 46.078125 2.898438 45.640625 2.222656 47.242188 C 2.097656 47.535156 2.105469 50.398438 2.203125 50.765625 C 2.488281 52.664062 2.164062 52.230469 3.339844 54.261719 C 3.289062 54.335938 3.375 54.476562 3.464844 54.460938 C 3.527344 54.421875 3.597656 54.332031 3.554688 54.261719 C 3.859375 53.789062 3.894531 53.257812 4.90625 52.308594 C 4.921875 47.863281 4.800781 49.851562 5.492188 47.582031 C 5.679688 46.847656 6.808594 44.851562 6.878906 44.753906 C 7.320312 44.113281 6.957031 44.71875 7.277344 40.523438 C 7.085938 40.519531 6.898438 40.527344 6.714844 40.585938 M 129.574219 42.558594 C 129.546875 42.753906 129.550781 42.964844 129.679688 43.128906 C 129.59375 43.667969 129.660156 44.214844 129.640625 44.753906 L 129.714844 44.757812 C 129.757812 45.582031 129.40625 47.542969 128.835938 48.746094 C 128.351562 49.921875 127.921875 50.433594 127.960938 50.726562 C 128.871094 58.898438 128.765625 53.820312 128.121094 60.21875 C 128.074219 60.804688 127.800781 60.800781 128.59375 62.9375 C 128.667969 65.421875 128.460938 66.675781 128.460938 66.675781 C 129.53125 65.015625 130.078125 60.714844 129.875 60.191406 C 129.832031 59.71875 129.957031 59.222656 129.792969 58.765625 C 129.773438 58.40625 129.828125 58.03125 129.722656 57.683594 C 129.714844 57.425781 129.769531 57.148438 129.636719 56.917969 C 129.675781 55.128906 130.207031 48.660156 130.132812 47.410156 C 130.191406 47.320312 130.195312 47.183594 130.148438 47.089844 C 130.167969 47.066406 130.203125 47.023438 130.222656 47.003906 C 130.1875 46.902344 129.929688 43.839844 129.886719 43.78125 C 129.839844 43.582031 129.824219 43.363281 129.71875 43.1875 C 129.714844 42.96875 129.648438 42.761719 129.574219 42.558594 M 131.574219 47.910156 C 130.523438 51.984375 131.671875 60.296875 131.179688 61.882812 C 130.585938 65.058594 131.453125 65.03125 124.261719 76.460938 C 123.78125 77.210938 123.984375 77.203125 122.714844 77.8125 C 122.695312 78.289062 122.746094 78.773438 122.683594 79.25 C 122.183594 81.570312 122.363281 82.042969 122.09375 82.34375 C 120.109375 84.488281 121.890625 83.664062 117.785156 84.53125 C 117.496094 84.597656 117.199219 84.585938 116.910156 84.589844 C 116.34375 84.292969 114.265625 84.714844 113.167969 83.941406 C 112.921875 83.761719 110.792969 82.230469 110.050781 81.820312 C 109.542969 81.707031 109.019531 81.636719 108.496094 81.628906 C 108.234375 81.496094 107.9375 81.550781 107.660156 81.542969 C 102.21875 79.421875 106.921875 81.890625 101.691406 78.078125 C 100.808594 78.601562 99.859375 79.003906 98.957031 79.488281 C 99.808594 81.070312 98.398438 79.757812 101.378906 82.152344 C 101.808594 82.429688 102.285156 82.621094 102.738281 82.859375 C 103.972656 83.414062 103.683594 83.695312 105.195312 83.707031 C 105.550781 83.835938 107.320312 83.796875 107.691406 83.882812 C 107.980469 83.925781 111.363281 84.933594 113.460938 86.304688 C 113.644531 86.4375 116.542969 86.960938 116.777344 86.957031 C 117.050781 87.070312 117.371094 87.074219 117.640625 86.953125 C 123.039062 85.496094 120.671875 86.714844 124.386719 84.050781 C 124.871094 83.71875 125.308594 83.320312 125.828125 83.039062 C 125.464844 83.667969 124.929688 84.171875 124.492188 84.75 C 123.785156 85.578125 124.066406 86 119.804688 87.816406 C 120.839844 87.835938 121.878906 87.84375 122.910156 87.816406 C 126.476562 86 127.214844 84.398438 128.074219 83.605469 C 128.117188 83.5625 130.632812 80.078125 130.742188 79.878906 C 130.894531 79.722656 131.097656 79.53125 131.023438 79.289062 C 131.222656 78.074219 131.296875 76.839844 131.5625 75.636719 C 129.714844 78.0625 127.957031 80.03125 127.957031 80.03125 C 128.332031 79.300781 130.484375 75.53125 131.167969 73.933594 L 131.261719 73.945312 C 131.261719 73.914062 131.269531 68.492188 131.273438 68.460938 C 131.761719 69.113281 131.949219 69.949219 132.472656 70.574219 C 132.632812 69.917969 133.617188 65.265625 133.632812 64.632812 C 133.617188 58.851562 133.671875 59.128906 133.5625 58.839844 C 133.539062 57.628906 133.21875 55.4375 133.179688 55.367188 C 133.054688 51.511719 132.207031 49.699219 131.574219 47.910156 M 6.078125 54.066406 C 5.832031 54.664062 5.746094 55.308594 5.558594 55.921875 C 5.441406 56.183594 6.136719 58.027344 6.339844 58.371094 C 11.164062 61.464844 8.902344 58.234375 21.265625 61.753906 C 23.199219 62.472656 26.703125 65.347656 26.703125 65.347656 C 26.859375 65.527344 27.109375 65.457031 27.316406 65.464844 C 27.476562 65.5 27.640625 65.511719 27.804688 65.523438 C 28.691406 65.871094 29.691406 65.5625 30.550781 65.148438 C 30.484375 65.039062 28.574219 61.949219 28.175781 61.773438 C 28.148438 61.757812 22.703125 59.070312 22.671875 59.078125 C 17.960938 59.75 18.792969 59.523438 17.746094 59.378906 C 17.535156 59.269531 17.296875 59.222656 17.058594 59.222656 C 16.625 59.058594 16.164062 59.003906 15.71875 58.886719 C 11.808594 58.03125 11.898438 57.558594 9.683594 56.800781 C 7.886719 56.21875 7.808594 55.738281 7.488281 55.449219 C 7.015625 54.992188 6.574219 54.503906 6.078125 54.066406 M 4.109375 57.074219 C 4.09375 57.273438 4.035156 59.203125 4.152344 59.460938 C 5.136719 61.734375 4.566406 61.1875 5.550781 61.972656 C 7.0625 63.175781 7.160156 63.1875 7.320312 63.226562 C 9.1875 63.675781 9.8125 64.328125 12.175781 64.507812 C 21.3125 65.746094 19.886719 66.421875 27.855469 69.316406 C 28.328125 69.339844 28.796875 69.214844 29.265625 69.179688 C 29.382812 68.574219 29.601562 67.992188 29.671875 67.382812 C 28.046875 67.359375 28.867188 68.28125 24.785156 65.246094 C 21.085938 62.4375 22.011719 63.117188 18.652344 62.15625 C 17.105469 61.753906 13.523438 61.125 13 61.140625 C 12.898438 61.105469 12.785156 61.085938 12.675781 61.078125 L 12.609375 61.023438 C 12.0625 60.914062 8.972656 61.101562 8.605469 60.914062 C 8.550781 60.890625 6.238281 59.785156 6.128906 59.691406 C 4.808594 58.519531 4.621094 58.566406 4.519531 58.277344 C 4.371094 57.882812 4.289062 57.460938 4.109375 57.074219 M 128.394531 66.71875 C 128.277344 66.9375 128.640625 66.734375 128.394531 66.71875 M 102.8125 77.25 C 105.332031 79.917969 104.945312 79.4375 106.992188 80.074219 C 108.632812 80.441406 106.710938 80.277344 110.601562 79.734375 C 111.097656 80.472656 111.75 81.089844 112.257812 81.824219 C 112.617188 82.375 113.300781 82.535156 113.863281 82.796875 C 114.984375 83.222656 115.023438 83.640625 116.363281 83.628906 L 116.363281 83.542969 C 116.699219 83.5625 118.832031 83.363281 118.9375 83.316406 C 119.59375 83.035156 120.261719 82.769531 120.917969 82.480469 C 121.191406 81.503906 121.242188 80.476562 121.503906 79.496094 C 121.296875 78.847656 120.914062 78.269531 120.742188 77.609375 C 117.261719 76.617188 118.261719 77.675781 116.964844 76.296875 C 116.828125 76.164062 114.347656 73.417969 114.183594 73.320312 C 113.191406 73.152344 112.664062 72.808594 109.636719 72.40625 C 109.28125 72.359375 108.929688 72.289062 108.578125 72.203125 C 108.445312 71.753906 108.339844 71.292969 108.226562 70.835938 C 107.566406 72.101562 102.851562 77.195312 102.8125 77.25 Z M 102.8125 77.25 "/></g><path style=" stroke:none;fill-rule:nonzero;fill:#000000;fill-opacity:1;" d="M 83.195312 9.617188 C 82.6875 9.699219 82.195312 9.53125 81.691406 9.496094 C 77.148438 8.882812 79.453125 9.085938 75.640625 9.875 C 75.265625 9.96875 75.421875 9.714844 73.632812 11.9375 C 73.585938 13.199219 73.703125 14.25 73.542969 14.644531 C 72.863281 16.3125 73.167969 16.324219 72.527344 16.882812 C 72.128906 17.210938 71.773438 17.601562 71.3125 17.847656 C 71.453125 17.035156 72.636719 15.34375 72.121094 13.765625 C 71.160156 11.761719 71.855469 12.210938 69.425781 10.773438 C 67.320312 9.476562 67.789062 10.066406 64.675781 9.6875 C 64.003906 9.554688 63.515625 10.105469 59.558594 11.933594 C 59.207031 11.648438 58.859375 11.347656 58.472656 11.113281 C 53.390625 10.226562 50.832031 12.183594 48.445312 13.746094 C 47.398438 14.503906 45.300781 15.039062 43.09375 16.050781 C 42.886719 16.105469 38.800781 16.71875 38.339844 16.640625 C 36.332031 16.066406 36.09375 16.117188 35.128906 15.816406 C 45.414062 15.570312 44.519531 14.160156 48.535156 12.214844 C 49.933594 11.453125 52.207031 10.136719 52.699219 10.058594 C 56.683594 9.328125 53.882812 8.726562 59.15625 9.402344 C 59.6875 9.472656 60.238281 9.722656 60.765625 9.472656 C 61.554688 9.203125 62.363281 8.964844 63.101562 8.566406 C 64.585938 8.125 69.726562 8.820312 71.265625 9.238281 C 73.453125 9.804688 73.023438 5.222656 83.195312 9.617188 Z M 83.195312 9.617188 "/><path style=" stroke:none;fill-rule:nonzero;fill:#000000;fill-opacity:1;" d="M 57.632812 14.367188 C 56.25 20.964844 56.875 20.824219 57.339844 22.878906 C 55.574219 21.402344 55.886719 21.398438 55.640625 19.035156 C 55.628906 18.953125 55.441406 16.382812 57.632812 14.367188 Z M 57.632812 14.367188 "/><path style=" stroke:none;fill-rule:nonzero;fill:#000000;fill-opacity:1;" d="M 103.417969 26.710938 C 101.898438 27.683594 99.929688 28.683594 97.820312 30.390625 C 98.71875 30.949219 99.703125 31.339844 100.617188 31.867188 C 95.59375 31.1875 97.496094 31.097656 93.722656 31.832031 C 92.039062 32.203125 93.238281 31.332031 88.734375 34.890625 C 88.699219 34.941406 86.550781 38.203125 86.476562 38.289062 C 86.726562 36.515625 86.535156 36.960938 87.148438 35.664062 C 88.113281 33.757812 87.765625 34.445312 89.011719 33.320312 C 91.332031 31.386719 91.308594 31.5 91.441406 31.246094 C 99.507812 29.910156 96.15625 28.335938 103.417969 26.710938 Z M 103.417969 26.710938 "/><path style=" stroke:none;fill-rule:nonzero;fill:#000000;fill-opacity:1;" d="M 105.003906 45.738281 C 105.351562 46.515625 105.671875 49.25 106.128906 49.535156 C 106.128906 49.535156 108.265625 51.015625 108.265625 51.015625 C 108.449219 51.203125 110.007812 51.320312 111.492188 51.625 C 111.929688 51.738281 112.613281 51.355469 112.820312 51.28125 C 114.492188 50.605469 113.488281 51.257812 114.441406 50.144531 C 114.796875 49.6875 115.203125 49.261719 115.480469 48.746094 C 115.519531 48.652344 115.609375 48.605469 115.691406 48.550781 C 115.679688 48.578125 115.136719 49.925781 114.550781 51.136719 C 113.9375 51.734375 112.808594 52.542969 112.628906 52.871094 C 112.628906 52.871094 109.773438 52.582031 109.773438 52.582031 C 109.722656 52.542969 106.679688 51.207031 106.351562 51.160156 C 105.472656 49.066406 104.769531 50.433594 105.003906 45.738281 Z M 105.003906 45.738281 "/><path style=" stroke:none;fill-rule:nonzero;fill:#000000;fill-opacity:1;" d="M 94.140625 51.417969 C 94.777344 51.679688 97.800781 52.484375 98.625 52.691406 C 98.679688 52.714844 105.800781 56.175781 106.457031 56.554688 C 106.402344 56.539062 96.574219 52.914062 95.699219 52.820312 C 95.699219 52.820312 91.539062 52.636719 89.578125 52.59375 C 89.441406 52.585938 85.191406 53.09375 84.984375 53.109375 C 85.335938 52.675781 85.855469 52.414062 86.15625 51.933594 C 87.269531 51.9375 88.960938 51.121094 94.140625 51.417969 Z M 94.140625 51.417969 "/><path style=" stroke:none;fill-rule:nonzero;fill:#000000;fill-opacity:1;" d="M 67.066406 64.894531 C 67.066406 64.894531 71.097656 67.921875 71.097656 67.921875 C 76.703125 70.238281 75.246094 69.464844 77.4375 69.773438 C 78.886719 70.011719 79.398438 70.027344 82.054688 69.160156 C 82.550781 69.140625 81.605469 67.738281 81.371094 66.464844 C 81.902344 66.796875 81.824219 66.867188 84.523438 69.035156 C 85.171875 69.292969 87.375 69.464844 88.882812 69.832031 C 89.957031 70.03125 90.3125 69.730469 94.289062 69.5625 C 105.199219 66.496094 100.695312 67.414062 105.546875 65.730469 C 105.496094 65.78125 101.683594 68.878906 101.269531 69.097656 C 101.21875 69.128906 98.917969 70.46875 98.789062 70.601562 C 98.496094 71.289062 97.703125 72.78125 97.703125 72.78125 C 97.640625 72.113281 97.40625 70.625 97.398438 70.574219 C 97.34375 70.578125 90.984375 71.785156 87.152344 70.90625 C 87.101562 70.894531 83.253906 70.023438 82.808594 69.992188 C 81.855469 70.425781 80.574219 71.160156 80.363281 71.140625 C 76.03125 71.152344 76.222656 71.15625 75.996094 71.070312 C 75.503906 70.914062 72.257812 70.179688 70.25 69.136719 C 65.242188 71.875 61.980469 71.433594 59.183594 71.433594 C 58.265625 71.242188 57.390625 70.871094 56.507812 70.566406 C 55.800781 70.082031 55.097656 69.59375 54.429688 69.058594 C 59.132812 70.371094 59.492188 71.1875 65.695312 69.816406 C 66.070312 69.714844 66.472656 69.671875 66.808594 69.457031 C 67.617188 68.921875 68.523438 68.546875 69.292969 67.949219 C 68.582031 66.90625 67.78125 65.933594 67.066406 64.894531 Z M 67.066406 64.894531 "/><path style=" stroke:none;fill-rule:nonzero;fill:#000000;fill-opacity:1;" d="M 56.035156 72.695312 C 53.265625 74.648438 52.914062 74.503906 53.003906 74.734375 C 53.390625 75.015625 55.117188 75.890625 55.390625 76.046875 C 56.929688 76.398438 57.683594 77.144531 61.546875 77.1875 C 69.722656 77.160156 71.628906 75.742188 77.21875 74.125 C 77.546875 74.058594 77.824219 73.824219 78.175781 73.867188 C 75.96875 74.933594 70.488281 77.296875 66.328125 78.359375 C 62.28125 78.695312 56.433594 79.019531 52.839844 77.121094 C 51.464844 76.433594 50.546875 75.199219 50.121094 75.28125 C 48.0625 75.660156 45.683594 75.757812 41.421875 78.835938 C 40.230469 79.570312 41.003906 79.125 38.832031 79.542969 C 38.203125 79.417969 37.605469 79.164062 37.019531 78.917969 C 40.910156 78.675781 38.738281 79.292969 40.691406 78.25 C 42.679688 77.101562 41.867188 77.191406 44.695312 75.316406 C 44.746094 75.285156 46.671875 74.117188 46.910156 74.0625 C 52.347656 72.859375 50.066406 73.054688 53.632812 72.808594 C 53.753906 72.785156 55.289062 72.65625 56.035156 72.695312 Z M 56.035156 72.695312 "/></g><mask id="ac6deb9791"><g filter="url(#4765557d4b)"><rect x="0" width="141.75" y="0" height="141.750002" style="fill:#000000;fill-opacity:0.11;stroke:none;"/></g></mask></g></g></svg>