<svg xmlns="http://www.w3.org/2000/svg" xmlns:xlink="http://www.w3.org/1999/xlink" width="680" zoomAndPan="magnify" viewBox="0 0 510 510.000002" height="680" preserveAspectRatio="xMidYMid meet" version="1.2"><defs/><g id="865db5f66e"><g style="fill:#000000;fill-opacity:1;"><g transform="translate(53.322427, 137.136128)"><path style="stroke:none" d="M 20.5 0.78125 C 17.144531 0.78125 14.253906 0.109375 11.828125 -1.234375 C 9.410156 -2.585938 7.546875 -4.507812 6.234375 -7 C 4.921875 -9.5 4.265625 -12.488281 4.265625 -15.96875 L 4.265625 -38.796875 L 13.078125 -38.796875 L 13.078125 -16.578125 C 13.078125 -10.585938 15.550781 -7.59375 20.5 -7.59375 C 25.457031 -7.59375 27.9375 -10.585938 27.9375 -16.578125 L 27.9375 -38.796875 L 36.75 -38.796875 L 36.75 -15.96875 C 36.75 -12.488281 36.09375 -9.5 34.78125 -7 C 33.46875 -4.507812 31.597656 -2.585938 29.171875 -1.234375 C 26.753906 0.109375 23.863281 0.78125 20.5 0.78125 Z M 20.5 0.78125 "/></g></g><g style="fill:#000000;fill-opacity:1;"><g transform="translate(90.563139, 137.136128)"><path style="stroke:none" d="M 4.21875 0 L 4.21875 -29.09375 L 10.46875 -29.09375 L 11.3125 -26.109375 C 12.375 -27.359375 13.671875 -28.296875 15.203125 -28.921875 C 16.742188 -29.554688 18.4375 -29.875 20.28125 -29.875 C 24.570312 -29.875 27.769531 -28.285156 29.875 -25.109375 C 31.050781 -26.617188 32.535156 -27.789062 34.328125 -28.625 C 36.117188 -29.457031 38.125 -29.875 40.34375 -29.875 C 44.070312 -29.875 47.035156 -28.71875 49.234375 -26.40625 C 51.441406 -24.09375 52.546875 -20.941406 52.546875 -16.953125 L 52.546875 0 L 44.109375 0 L 44.109375 -15.96875 C 44.109375 -18.03125 43.597656 -19.660156 42.578125 -20.859375 C 41.566406 -22.066406 40.195312 -22.671875 38.46875 -22.671875 C 36.65625 -22.671875 35.210938 -22.039062 34.140625 -20.78125 C 33.066406 -19.53125 32.53125 -17.847656 32.53125 -15.734375 L 32.53125 0 L 24.21875 0 L 24.21875 -15.96875 C 24.21875 -18.03125 23.707031 -19.660156 22.6875 -20.859375 C 21.675781 -22.066406 20.300781 -22.671875 18.5625 -22.671875 C 16.75 -22.671875 15.304688 -22.039062 14.234375 -20.78125 C 13.171875 -19.53125 12.640625 -17.847656 12.640625 -15.734375 L 12.640625 0 Z M 4.21875 0 "/></g></g><g style="fill:#000000;fill-opacity:1;"><g transform="translate(142.988537, 137.136128)"><path style="stroke:none" d=""/></g></g><g style="fill:#000000;fill-opacity:1;"><g transform="translate(152.242882, 137.136128)"><path style="stroke:none" d="M 13.90625 0.546875 C 10.46875 0.546875 7.75 -0.253906 5.75 -1.859375 C 3.757812 -3.460938 2.765625 -5.671875 2.765625 -8.484375 C 2.765625 -11.179688 3.660156 -13.332031 5.453125 -14.9375 C 7.242188 -16.539062 9.65625 -17.34375 12.6875 -17.34375 L 23.21875 -17.34375 L 23.21875 -18.671875 C 23.21875 -20.117188 22.703125 -21.273438 21.671875 -22.140625 C 20.640625 -23.003906 19.289062 -23.4375 17.625 -23.4375 C 16.257812 -23.4375 15.09375 -23.125 14.125 -22.5 C 13.164062 -21.875 12.554688 -21.039062 12.296875 -20 L 4.21875 -20 C 4.726562 -23.1875 6.15625 -25.628906 8.5 -27.328125 C 10.851562 -29.023438 13.875 -29.875 17.5625 -29.875 C 21.925781 -29.875 25.335938 -28.773438 27.796875 -26.578125 C 30.253906 -24.378906 31.484375 -21.359375 31.484375 -17.515625 L 31.484375 0 L 25.21875 0 L 24.28125 -3.375 C 21.726562 -0.757812 18.269531 0.546875 13.90625 0.546875 Z M 11.078125 -8.8125 C 11.078125 -7.8125 11.507812 -7.003906 12.375 -6.390625 C 13.25 -5.785156 14.40625 -5.484375 15.84375 -5.484375 C 17.957031 -5.484375 19.707031 -6.09375 21.09375 -7.3125 C 22.476562 -8.53125 23.207031 -10.117188 23.28125 -12.078125 L 15.296875 -12.078125 C 14.035156 -12.078125 13.015625 -11.78125 12.234375 -11.1875 C 11.460938 -10.601562 11.078125 -9.8125 11.078125 -8.8125 Z M 11.078125 -8.8125 "/></g></g><g style="fill:#000000;fill-opacity:1;"><g transform="translate(183.609228, 137.136128)"><path style="stroke:none" d="M 18.234375 0 C 14.535156 0 11.695312 -0.945312 9.71875 -2.84375 C 7.75 -4.75 6.765625 -7.476562 6.765625 -11.03125 L 6.765625 -22.21875 L 1.109375 -22.21875 L 1.109375 -29.09375 L 3.71875 -29.09375 C 5.300781 -29.09375 6.378906 -29.347656 6.953125 -29.859375 C 7.523438 -30.378906 7.921875 -31.378906 8.140625 -32.859375 L 8.640625 -36.640625 L 15.1875 -36.640625 L 15.1875 -29.09375 L 23.171875 -29.09375 L 23.171875 -22.21875 L 15.1875 -22.21875 L 15.1875 -12.296875 C 15.1875 -8.972656 16.8125 -7.3125 20.0625 -7.3125 L 23.546875 -7.3125 L 23.546875 0 Z M 18.234375 0 "/></g></g><g style="fill:#000000;fill-opacity:1;"><g transform="translate(205.720665, 137.136128)"><path style="stroke:none" d="M 18.515625 0.78125 C 15.296875 0.78125 12.457031 0.132812 10 -1.15625 C 7.539062 -2.457031 5.617188 -4.257812 4.234375 -6.5625 C 2.847656 -8.875 2.15625 -11.546875 2.15625 -14.578125 C 2.15625 -17.609375 2.847656 -20.269531 4.234375 -22.5625 C 5.617188 -24.851562 7.539062 -26.644531 10 -27.9375 C 12.457031 -29.226562 15.296875 -29.875 18.515625 -29.875 C 21.722656 -29.875 24.554688 -29.226562 27.015625 -27.9375 C 29.472656 -26.644531 31.382812 -24.851562 32.75 -22.5625 C 34.125 -20.269531 34.8125 -17.609375 34.8125 -14.578125 C 34.8125 -11.546875 34.125 -8.875 32.75 -6.5625 C 31.382812 -4.257812 29.472656 -2.457031 27.015625 -1.15625 C 24.554688 0.132812 21.722656 0.78125 18.515625 0.78125 Z M 10.46875 -14.578125 C 10.46875 -12.210938 11.21875 -10.269531 12.71875 -8.75 C 14.21875 -7.238281 16.148438 -6.484375 18.515625 -6.484375 C 20.878906 -6.484375 22.796875 -7.238281 24.265625 -8.75 C 25.742188 -10.269531 26.484375 -12.210938 26.484375 -14.578125 C 26.484375 -16.972656 25.742188 -18.921875 24.265625 -20.421875 C 22.796875 -21.921875 20.878906 -22.671875 18.515625 -22.671875 C 16.148438 -22.671875 14.21875 -21.921875 12.71875 -20.421875 C 11.21875 -18.921875 10.46875 -16.972656 10.46875 -14.578125 Z M 10.46875 -14.578125 "/></g></g><g style="fill:#000000;fill-opacity:1;"><g transform="translate(238.915825, 137.136128)"><path style="stroke:none" d=""/></g></g><g style="fill:#000000;fill-opacity:1;"><g transform="translate(248.170178, 137.136128)"><path style="stroke:none" d="M 16.953125 0.78125 C 14.078125 0.78125 11.53125 0.125 9.3125 -1.1875 C 7.09375 -2.5 5.34375 -4.3125 4.0625 -6.625 C 2.789062 -8.9375 2.15625 -11.585938 2.15625 -14.578125 C 2.15625 -17.566406 2.789062 -20.207031 4.0625 -22.5 C 5.34375 -24.789062 7.09375 -26.59375 9.3125 -27.90625 C 11.53125 -29.21875 14.078125 -29.875 16.953125 -29.875 C 18.765625 -29.875 20.445312 -29.601562 22 -29.0625 C 23.550781 -28.53125 24.957031 -27.785156 26.21875 -26.828125 L 26.21875 -41.015625 L 34.640625 -41.015625 L 34.640625 0 L 28.375 0 L 27.375 -3.328125 C 26.082031 -2.035156 24.550781 -1.023438 22.78125 -0.296875 C 21.007812 0.421875 19.066406 0.78125 16.953125 0.78125 Z M 10.46875 -14.578125 C 10.46875 -12.210938 11.21875 -10.269531 12.71875 -8.75 C 14.21875 -7.238281 16.148438 -6.484375 18.515625 -6.484375 C 20.878906 -6.484375 22.796875 -7.238281 24.265625 -8.75 C 25.742188 -10.269531 26.484375 -12.210938 26.484375 -14.578125 C 26.484375 -16.941406 25.742188 -18.878906 24.265625 -20.390625 C 22.796875 -21.910156 20.878906 -22.671875 18.515625 -22.671875 C 16.148438 -22.671875 14.21875 -21.910156 12.71875 -20.390625 C 11.21875 -18.878906 10.46875 -16.941406 10.46875 -14.578125 Z M 10.46875 -14.578125 "/></g></g><g style="fill:#000000;fill-opacity:1;"><g transform="translate(283.249572, 137.136128)"><path style="stroke:none" d="M 17.953125 0.78125 C 14.847656 0.78125 12.101562 0.132812 9.71875 -1.15625 C 7.34375 -2.457031 5.488281 -4.257812 4.15625 -6.5625 C 2.820312 -8.875 2.15625 -11.546875 2.15625 -14.578125 C 2.15625 -17.609375 2.828125 -20.269531 4.171875 -22.5625 C 5.523438 -24.851562 7.394531 -26.644531 9.78125 -27.9375 C 12.164062 -29.226562 14.925781 -29.875 18.0625 -29.875 C 21.394531 -29.875 24.269531 -29.132812 26.6875 -27.65625 C 29.101562 -26.175781 30.945312 -24.101562 32.21875 -21.4375 C 33.5 -18.78125 34.046875 -15.679688 33.859375 -12.140625 L 10.53125 -12.140625 C 10.9375 -10.140625 11.820312 -8.613281 13.1875 -7.5625 C 14.550781 -6.507812 16.195312 -5.984375 18.125 -5.984375 C 19.53125 -5.984375 20.8125 -6.25 21.96875 -6.78125 C 23.132812 -7.320312 24.070312 -8.070312 24.78125 -9.03125 L 33.3125 -9.03125 C 32.050781 -5.96875 30.070312 -3.566406 27.375 -1.828125 C 24.675781 -0.0859375 21.535156 0.78125 17.953125 0.78125 Z M 10.578125 -17.453125 L 25.71875 -17.453125 C 25.238281 -19.234375 24.34375 -20.628906 23.03125 -21.640625 C 21.71875 -22.660156 20.082031 -23.171875 18.125 -23.171875 C 16.28125 -23.171875 14.679688 -22.660156 13.328125 -21.640625 C 11.984375 -20.628906 11.066406 -19.234375 10.578125 -17.453125 Z M 10.578125 -17.453125 "/></g></g><g style="fill:#000000;fill-opacity:1;"><g transform="translate(53.322427, 188.593188)"><path style="stroke:none" d="M 18.0625 0.78125 C 14.957031 0.78125 12.203125 0.125 9.796875 -1.1875 C 7.398438 -2.5 5.523438 -4.3125 4.171875 -6.625 C 2.828125 -8.9375 2.15625 -11.585938 2.15625 -14.578125 C 2.15625 -17.566406 2.828125 -20.207031 4.171875 -22.5 C 5.523438 -24.789062 7.398438 -26.59375 9.796875 -27.90625 C 12.203125 -29.21875 14.957031 -29.875 18.0625 -29.875 C 20.757812 -29.875 23.207031 -29.382812 25.40625 -28.40625 C 27.601562 -27.425781 29.421875 -26.039062 30.859375 -24.25 C 32.304688 -22.457031 33.253906 -20.359375 33.703125 -17.953125 L 25.609375 -17.953125 C 24.898438 -19.429688 23.898438 -20.585938 22.609375 -21.421875 C 21.316406 -22.253906 19.835938 -22.671875 18.171875 -22.671875 C 15.921875 -22.671875 14.070312 -21.921875 12.625 -20.421875 C 11.1875 -18.921875 10.46875 -16.972656 10.46875 -14.578125 C 10.46875 -12.210938 11.1875 -10.269531 12.625 -8.75 C 14.070312 -7.238281 15.921875 -6.484375 18.171875 -6.484375 C 19.953125 -6.484375 21.515625 -6.953125 22.859375 -7.890625 C 24.210938 -8.835938 25.179688 -10.101562 25.765625 -11.6875 L 33.96875 -11.6875 C 33.457031 -9.144531 32.46875 -6.9375 31 -5.0625 C 29.539062 -3.195312 27.703125 -1.753906 25.484375 -0.734375 C 23.273438 0.273438 20.800781 0.78125 18.0625 0.78125 Z M 18.0625 0.78125 "/></g></g><g style="fill:#000000;fill-opacity:1;"><g transform="translate(85.57547, 188.593188)"><path style="stroke:none" d="M 18.515625 0.78125 C 15.296875 0.78125 12.457031 0.132812 10 -1.15625 C 7.539062 -2.457031 5.617188 -4.257812 4.234375 -6.5625 C 2.847656 -8.875 2.15625 -11.546875 2.15625 -14.578125 C 2.15625 -17.609375 2.847656 -20.269531 4.234375 -22.5625 C 5.617188 -24.851562 7.539062 -26.644531 10 -27.9375 C 12.457031 -29.226562 15.296875 -29.875 18.515625 -29.875 C 21.722656 -29.875 24.554688 -29.226562 27.015625 -27.9375 C 29.472656 -26.644531 31.382812 -24.851562 32.75 -22.5625 C 34.125 -20.269531 34.8125 -17.609375 34.8125 -14.578125 C 34.8125 -11.546875 34.125 -8.875 32.75 -6.5625 C 31.382812 -4.257812 29.472656 -2.457031 27.015625 -1.15625 C 24.554688 0.132812 21.722656 0.78125 18.515625 0.78125 Z M 10.46875 -14.578125 C 10.46875 -12.210938 11.21875 -10.269531 12.71875 -8.75 C 14.21875 -7.238281 16.148438 -6.484375 18.515625 -6.484375 C 20.878906 -6.484375 22.796875 -7.238281 24.265625 -8.75 C 25.742188 -10.269531 26.484375 -12.210938 26.484375 -14.578125 C 26.484375 -16.972656 25.742188 -18.921875 24.265625 -20.421875 C 22.796875 -21.921875 20.878906 -22.671875 18.515625 -22.671875 C 16.148438 -22.671875 14.21875 -21.921875 12.71875 -20.421875 C 11.21875 -18.921875 10.46875 -16.972656 10.46875 -14.578125 Z M 10.46875 -14.578125 "/></g></g><g style="fill:#000000;fill-opacity:1;"><g transform="translate(118.77063, 188.593188)"><path style="stroke:none" d="M 4.21875 0 L 4.21875 -29.09375 L 10.46875 -29.09375 L 11.578125 -25.21875 C 12.546875 -26.582031 13.726562 -27.566406 15.125 -28.171875 C 16.53125 -28.785156 18.304688 -29.09375 20.453125 -29.09375 L 23.609375 -29.09375 L 23.609375 -21.453125 L 20.390625 -21.453125 C 17.992188 -21.453125 16.101562 -20.800781 14.71875 -19.5 C 13.332031 -18.207031 12.640625 -15.992188 12.640625 -12.859375 L 12.640625 0 Z M 4.21875 0 "/></g></g><g style="fill:#000000;fill-opacity:1;"><g transform="translate(140.494151, 188.593188)"><path style="stroke:none" d="M 13.90625 0.546875 C 10.46875 0.546875 7.75 -0.253906 5.75 -1.859375 C 3.757812 -3.460938 2.765625 -5.671875 2.765625 -8.484375 C 2.765625 -11.179688 3.660156 -13.332031 5.453125 -14.9375 C 7.242188 -16.539062 9.65625 -17.34375 12.6875 -17.34375 L 23.21875 -17.34375 L 23.21875 -18.671875 C 23.21875 -20.117188 22.703125 -21.273438 21.671875 -22.140625 C 20.640625 -23.003906 19.289062 -23.4375 17.625 -23.4375 C 16.257812 -23.4375 15.09375 -23.125 14.125 -22.5 C 13.164062 -21.875 12.554688 -21.039062 12.296875 -20 L 4.21875 -20 C 4.726562 -23.1875 6.15625 -25.628906 8.5 -27.328125 C 10.851562 -29.023438 13.875 -29.875 17.5625 -29.875 C 21.925781 -29.875 25.335938 -28.773438 27.796875 -26.578125 C 30.253906 -24.378906 31.484375 -21.359375 31.484375 -17.515625 L 31.484375 0 L 25.21875 0 L 24.28125 -3.375 C 21.726562 -0.757812 18.269531 0.546875 13.90625 0.546875 Z M 11.078125 -8.8125 C 11.078125 -7.8125 11.507812 -7.003906 12.375 -6.390625 C 13.25 -5.785156 14.40625 -5.484375 15.84375 -5.484375 C 17.957031 -5.484375 19.707031 -6.09375 21.09375 -7.3125 C 22.476562 -8.53125 23.207031 -10.117188 23.28125 -12.078125 L 15.296875 -12.078125 C 14.035156 -12.078125 13.015625 -11.78125 12.234375 -11.1875 C 11.460938 -10.601562 11.078125 -9.8125 11.078125 -8.8125 Z M 11.078125 -8.8125 "/></g></g><g style="fill:#000000;fill-opacity:1;"><g transform="translate(171.860497, 188.593188)"><path style="stroke:none" d="M 18.40625 12.296875 C 14.1875 12.296875 10.753906 11.335938 8.109375 9.421875 C 5.472656 7.503906 3.972656 4.863281 3.609375 1.5 L 11.8125 1.5 C 12.101562 2.75 12.8125 3.722656 13.9375 4.421875 C 15.0625 5.128906 16.492188 5.484375 18.234375 5.484375 C 22.890625 5.484375 25.21875 3.117188 25.21875 -1.609375 L 25.21875 -3.65625 C 24.03125 -2.726562 22.671875 -2.015625 21.140625 -1.515625 C 19.609375 -1.023438 17.972656 -0.78125 16.234375 -0.78125 C 13.503906 -0.78125 11.078125 -1.394531 8.953125 -2.625 C 6.828125 -3.863281 5.160156 -5.582031 3.953125 -7.78125 C 2.753906 -9.976562 2.15625 -12.503906 2.15625 -15.359375 C 2.15625 -18.203125 2.753906 -20.710938 3.953125 -22.890625 C 5.160156 -25.066406 6.828125 -26.773438 8.953125 -28.015625 C 11.078125 -29.253906 13.503906 -29.875 16.234375 -29.875 C 18.304688 -29.875 20.21875 -29.53125 21.96875 -28.84375 C 23.726562 -28.164062 25.234375 -27.175781 26.484375 -25.875 L 27.375 -29.09375 L 33.640625 -29.09375 L 33.640625 -1.609375 C 33.640625 1.273438 33.019531 3.757812 31.78125 5.84375 C 30.539062 7.9375 28.773438 9.535156 26.484375 10.640625 C 24.203125 11.742188 21.507812 12.296875 18.40625 12.296875 Z M 10.46875 -15.359375 C 10.46875 -13.097656 11.171875 -11.265625 12.578125 -9.859375 C 13.984375 -8.460938 15.796875 -7.765625 18.015625 -7.765625 C 20.234375 -7.765625 22.050781 -8.460938 23.46875 -9.859375 C 24.894531 -11.265625 25.609375 -13.097656 25.609375 -15.359375 C 25.609375 -17.566406 24.894531 -19.375 23.46875 -20.78125 C 22.050781 -22.1875 20.234375 -22.890625 18.015625 -22.890625 C 15.796875 -22.890625 13.984375 -22.1875 12.578125 -20.78125 C 11.171875 -19.375 10.46875 -17.566406 10.46875 -15.359375 Z M 10.46875 -15.359375 "/></g></g><g style="fill:#000000;fill-opacity:1;"><g transform="translate(205.997766, 188.593188)"><path style="stroke:none" d="M 17.953125 0.78125 C 14.847656 0.78125 12.101562 0.132812 9.71875 -1.15625 C 7.34375 -2.457031 5.488281 -4.257812 4.15625 -6.5625 C 2.820312 -8.875 2.15625 -11.546875 2.15625 -14.578125 C 2.15625 -17.609375 2.828125 -20.269531 4.171875 -22.5625 C 5.523438 -24.851562 7.394531 -26.644531 9.78125 -27.9375 C 12.164062 -29.226562 14.925781 -29.875 18.0625 -29.875 C 21.394531 -29.875 24.269531 -29.132812 26.6875 -27.65625 C 29.101562 -26.175781 30.945312 -24.101562 32.21875 -21.4375 C 33.5 -18.78125 34.046875 -15.679688 33.859375 -12.140625 L 10.53125 -12.140625 C 10.9375 -10.140625 11.820312 -8.613281 13.1875 -7.5625 C 14.550781 -6.507812 16.195312 -5.984375 18.125 -5.984375 C 19.53125 -5.984375 20.8125 -6.25 21.96875 -6.78125 C 23.132812 -7.320312 24.070312 -8.070312 24.78125 -9.03125 L 33.3125 -9.03125 C 32.050781 -5.96875 30.070312 -3.566406 27.375 -1.828125 C 24.675781 -0.0859375 21.535156 0.78125 17.953125 0.78125 Z M 10.578125 -17.453125 L 25.71875 -17.453125 C 25.238281 -19.234375 24.34375 -20.628906 23.03125 -21.640625 C 21.71875 -22.660156 20.082031 -23.171875 18.125 -23.171875 C 16.28125 -23.171875 14.679688 -22.660156 13.328125 -21.640625 C 11.984375 -20.628906 11.066406 -19.234375 10.578125 -17.453125 Z M 10.578125 -17.453125 "/></g></g><g style="fill:#000000;fill-opacity:1;"><g transform="translate(238.195397, 188.593188)"><path style="stroke:none" d="M 4.21875 0 L 4.21875 -29.09375 L 10.46875 -29.09375 L 11.3125 -26.109375 C 12.375 -27.359375 13.671875 -28.296875 15.203125 -28.921875 C 16.742188 -29.554688 18.4375 -29.875 20.28125 -29.875 C 24.570312 -29.875 27.769531 -28.285156 29.875 -25.109375 C 31.050781 -26.617188 32.535156 -27.789062 34.328125 -28.625 C 36.117188 -29.457031 38.125 -29.875 40.34375 -29.875 C 44.070312 -29.875 47.035156 -28.71875 49.234375 -26.40625 C 51.441406 -24.09375 52.546875 -20.941406 52.546875 -16.953125 L 52.546875 0 L 44.109375 0 L 44.109375 -15.96875 C 44.109375 -18.03125 43.597656 -19.660156 42.578125 -20.859375 C 41.566406 -22.066406 40.195312 -22.671875 38.46875 -22.671875 C 36.65625 -22.671875 35.210938 -22.039062 34.140625 -20.78125 C 33.066406 -19.53125 32.53125 -17.847656 32.53125 -15.734375 L 32.53125 0 L 24.21875 0 L 24.21875 -15.96875 C 24.21875 -18.03125 23.707031 -19.660156 22.6875 -20.859375 C 21.675781 -22.066406 20.300781 -22.671875 18.5625 -22.671875 C 16.75 -22.671875 15.304688 -22.039062 14.234375 -20.78125 C 13.171875 -19.53125 12.640625 -17.847656 12.640625 -15.734375 L 12.640625 0 Z M 4.21875 0 "/></g></g><g style="fill:#000000;fill-opacity:1;"><g transform="translate(290.620804, 188.593188)"><path style="stroke:none" d=""/></g></g><g style="fill:#000000;fill-opacity:1;"><g transform="translate(299.875141, 188.593188)"><path style="stroke:none" d="M 17.953125 0.78125 C 14.847656 0.78125 12.101562 0.132812 9.71875 -1.15625 C 7.34375 -2.457031 5.488281 -4.257812 4.15625 -6.5625 C 2.820312 -8.875 2.15625 -11.546875 2.15625 -14.578125 C 2.15625 -17.609375 2.828125 -20.269531 4.171875 -22.5625 C 5.523438 -24.851562 7.394531 -26.644531 9.78125 -27.9375 C 12.164062 -29.226562 14.925781 -29.875 18.0625 -29.875 C 21.394531 -29.875 24.269531 -29.132812 26.6875 -27.65625 C 29.101562 -26.175781 30.945312 -24.101562 32.21875 -21.4375 C 33.5 -18.78125 34.046875 -15.679688 33.859375 -12.140625 L 10.53125 -12.140625 C 10.9375 -10.140625 11.820312 -8.613281 13.1875 -7.5625 C 14.550781 -6.507812 16.195312 -5.984375 18.125 -5.984375 C 19.53125 -5.984375 20.8125 -6.25 21.96875 -6.78125 C 23.132812 -7.320312 24.070312 -8.070312 24.78125 -9.03125 L 33.3125 -9.03125 C 32.050781 -5.96875 30.070312 -3.566406 27.375 -1.828125 C 24.675781 -0.0859375 21.535156 0.78125 17.953125 0.78125 Z M 10.578125 -17.453125 L 25.71875 -17.453125 C 25.238281 -19.234375 24.34375 -20.628906 23.03125 -21.640625 C 21.71875 -22.660156 20.082031 -23.171875 18.125 -23.171875 C 16.28125 -23.171875 14.679688 -22.660156 13.328125 -21.640625 C 11.984375 -20.628906 11.066406 -19.234375 10.578125 -17.453125 Z M 14.6875 -33.203125 L 17.734375 -42.0625 L 25.15625 -42.0625 L 21 -33.203125 Z M 14.6875 -33.203125 "/></g></g><g style="fill:#000000;fill-opacity:1;"><g transform="translate(53.322427, 240.050248)"><path style="stroke:none" d="M 21.84375 0.78125 C 20.03125 0.78125 18.347656 0.515625 16.796875 -0.015625 C 15.242188 -0.554688 13.859375 -1.304688 12.640625 -2.265625 L 12.640625 11.078125 L 4.21875 11.078125 L 4.21875 -29.09375 L 10.46875 -29.09375 L 11.421875 -25.765625 C 12.710938 -27.054688 14.242188 -28.0625 16.015625 -28.78125 C 17.785156 -29.507812 19.726562 -29.875 21.84375 -29.875 C 24.757812 -29.875 27.320312 -29.21875 29.53125 -27.90625 C 31.75 -26.59375 33.492188 -24.789062 34.765625 -22.5 C 36.046875 -20.207031 36.6875 -17.566406 36.6875 -14.578125 C 36.6875 -11.585938 36.046875 -8.9375 34.765625 -6.625 C 33.492188 -4.3125 31.75 -2.5 29.53125 -1.1875 C 27.320312 0.125 24.757812 0.78125 21.84375 0.78125 Z M 12.296875 -14.578125 C 12.296875 -12.210938 13.046875 -10.269531 14.546875 -8.75 C 16.046875 -7.238281 17.976562 -6.484375 20.34375 -6.484375 C 22.738281 -6.484375 24.675781 -7.238281 26.15625 -8.75 C 27.632812 -10.269531 28.375 -12.210938 28.375 -14.578125 C 28.375 -16.941406 27.632812 -18.878906 26.15625 -20.390625 C 24.675781 -21.910156 22.738281 -22.671875 20.34375 -22.671875 C 17.976562 -22.671875 16.046875 -21.910156 14.546875 -20.390625 C 13.046875 -18.878906 12.296875 -16.941406 12.296875 -14.578125 Z M 12.296875 -14.578125 "/></g></g><g style="fill:#000000;fill-opacity:1;"><g transform="translate(88.401821, 240.050248)"><path style="stroke:none" d="M 4.21875 0 L 4.21875 -29.09375 L 10.46875 -29.09375 L 11.578125 -25.21875 C 12.546875 -26.582031 13.726562 -27.566406 15.125 -28.171875 C 16.53125 -28.785156 18.304688 -29.09375 20.453125 -29.09375 L 23.609375 -29.09375 L 23.609375 -21.453125 L 20.390625 -21.453125 C 17.992188 -21.453125 16.101562 -20.800781 14.71875 -19.5 C 13.332031 -18.207031 12.640625 -15.992188 12.640625 -12.859375 L 12.640625 0 Z M 4.21875 0 "/></g></g><g style="fill:#000000;fill-opacity:1;"><g transform="translate(110.125342, 240.050248)"><path style="stroke:none" d="M 18.515625 0.78125 C 15.296875 0.78125 12.457031 0.132812 10 -1.15625 C 7.539062 -2.457031 5.617188 -4.257812 4.234375 -6.5625 C 2.847656 -8.875 2.15625 -11.546875 2.15625 -14.578125 C 2.15625 -17.609375 2.847656 -20.269531 4.234375 -22.5625 C 5.617188 -24.851562 7.539062 -26.644531 10 -27.9375 C 12.457031 -29.226562 15.296875 -29.875 18.515625 -29.875 C 21.722656 -29.875 24.554688 -29.226562 27.015625 -27.9375 C 29.472656 -26.644531 31.382812 -24.851562 32.75 -22.5625 C 34.125 -20.269531 34.8125 -17.609375 34.8125 -14.578125 C 34.8125 -11.546875 34.125 -8.875 32.75 -6.5625 C 31.382812 -4.257812 29.472656 -2.457031 27.015625 -1.15625 C 24.554688 0.132812 21.722656 0.78125 18.515625 0.78125 Z M 10.46875 -14.578125 C 10.46875 -12.210938 11.21875 -10.269531 12.71875 -8.75 C 14.21875 -7.238281 16.148438 -6.484375 18.515625 -6.484375 C 20.878906 -6.484375 22.796875 -7.238281 24.265625 -8.75 C 25.742188 -10.269531 26.484375 -12.210938 26.484375 -14.578125 C 26.484375 -16.972656 25.742188 -18.921875 24.265625 -20.421875 C 22.796875 -21.921875 20.878906 -22.671875 18.515625 -22.671875 C 16.148438 -22.671875 14.21875 -21.921875 12.71875 -20.421875 C 11.21875 -18.921875 10.46875 -16.972656 10.46875 -14.578125 Z M 10.46875 -14.578125 "/></g></g><g style="fill:#000000;fill-opacity:1;"><g transform="translate(143.320502, 240.050248)"><path style="stroke:none" d="M 18.0625 0.78125 C 14.957031 0.78125 12.203125 0.125 9.796875 -1.1875 C 7.398438 -2.5 5.523438 -4.3125 4.171875 -6.625 C 2.828125 -8.9375 2.15625 -11.585938 2.15625 -14.578125 C 2.15625 -17.566406 2.828125 -20.207031 4.171875 -22.5 C 5.523438 -24.789062 7.398438 -26.59375 9.796875 -27.90625 C 12.203125 -29.21875 14.957031 -29.875 18.0625 -29.875 C 20.757812 -29.875 23.207031 -29.382812 25.40625 -28.40625 C 27.601562 -27.425781 29.421875 -26.039062 30.859375 -24.25 C 32.304688 -22.457031 33.253906 -20.359375 33.703125 -17.953125 L 25.609375 -17.953125 C 24.898438 -19.429688 23.898438 -20.585938 22.609375 -21.421875 C 21.316406 -22.253906 19.835938 -22.671875 18.171875 -22.671875 C 15.921875 -22.671875 14.070312 -21.921875 12.625 -20.421875 C 11.1875 -18.921875 10.46875 -16.972656 10.46875 -14.578125 C 10.46875 -12.210938 11.1875 -10.269531 12.625 -8.75 C 14.070312 -7.238281 15.921875 -6.484375 18.171875 -6.484375 C 19.953125 -6.484375 21.515625 -6.953125 22.859375 -7.890625 C 24.210938 -8.835938 25.179688 -10.101562 25.765625 -11.6875 L 33.96875 -11.6875 C 33.457031 -9.144531 32.46875 -6.9375 31 -5.0625 C 29.539062 -3.195312 27.703125 -1.753906 25.484375 -0.734375 C 23.273438 0.273438 20.800781 0.78125 18.0625 0.78125 Z M 18.0625 0.78125 "/></g></g><g style="fill:#000000;fill-opacity:1;"><g transform="translate(175.573545, 240.050248)"><path style="stroke:none" d="M 15.796875 0.78125 C 12.023438 0.78125 9.054688 -0.410156 6.890625 -2.796875 C 4.734375 -5.179688 3.65625 -8.390625 3.65625 -12.421875 L 3.65625 -29.09375 L 12.078125 -29.09375 L 12.078125 -13.25 C 12.078125 -11.101562 12.582031 -9.4375 13.59375 -8.25 C 14.613281 -7.070312 16.015625 -6.484375 17.796875 -6.484375 C 19.710938 -6.484375 21.242188 -7.144531 22.390625 -8.46875 C 23.535156 -9.800781 24.109375 -11.613281 24.109375 -13.90625 L 24.109375 -29.09375 L 32.53125 -29.09375 L 32.53125 0 L 26.265625 0 L 25.390625 -3.265625 C 24.242188 -1.898438 22.835938 -0.882812 21.171875 -0.21875 C 19.503906 0.445312 17.710938 0.78125 15.796875 0.78125 Z M 15.796875 0.78125 "/></g></g><g style="fill:#000000;fill-opacity:1;"><g transform="translate(208.547024, 240.050248)"><path style="stroke:none" d="M 4.21875 0 L 4.21875 -29.09375 L 10.46875 -29.09375 L 11.578125 -25.21875 C 12.546875 -26.582031 13.726562 -27.566406 15.125 -28.171875 C 16.53125 -28.785156 18.304688 -29.09375 20.453125 -29.09375 L 23.609375 -29.09375 L 23.609375 -21.453125 L 20.390625 -21.453125 C 17.992188 -21.453125 16.101562 -20.800781 14.71875 -19.5 C 13.332031 -18.207031 12.640625 -15.992188 12.640625 -12.859375 L 12.640625 0 Z M 4.21875 0 "/></g></g><g style="fill:#000000;fill-opacity:1;"><g transform="translate(230.270553, 240.050248)"><path style="stroke:none" d="M 13.90625 0.546875 C 10.46875 0.546875 7.75 -0.253906 5.75 -1.859375 C 3.757812 -3.460938 2.765625 -5.671875 2.765625 -8.484375 C 2.765625 -11.179688 3.660156 -13.332031 5.453125 -14.9375 C 7.242188 -16.539062 9.65625 -17.34375 12.6875 -17.34375 L 23.21875 -17.34375 L 23.21875 -18.671875 C 23.21875 -20.117188 22.703125 -21.273438 21.671875 -22.140625 C 20.640625 -23.003906 19.289062 -23.4375 17.625 -23.4375 C 16.257812 -23.4375 15.09375 -23.125 14.125 -22.5 C 13.164062 -21.875 12.554688 -21.039062 12.296875 -20 L 4.21875 -20 C 4.726562 -23.1875 6.15625 -25.628906 8.5 -27.328125 C 10.851562 -29.023438 13.875 -29.875 17.5625 -29.875 C 21.925781 -29.875 25.335938 -28.773438 27.796875 -26.578125 C 30.253906 -24.378906 31.484375 -21.359375 31.484375 -17.515625 L 31.484375 0 L 25.21875 0 L 24.28125 -3.375 C 21.726562 -0.757812 18.269531 0.546875 13.90625 0.546875 Z M 11.078125 -8.8125 C 11.078125 -7.8125 11.507812 -7.003906 12.375 -6.390625 C 13.25 -5.785156 14.40625 -5.484375 15.84375 -5.484375 C 17.957031 -5.484375 19.707031 -6.09375 21.09375 -7.3125 C 22.476562 -8.53125 23.207031 -10.117188 23.28125 -12.078125 L 15.296875 -12.078125 C 14.035156 -12.078125 13.015625 -11.78125 12.234375 -11.1875 C 11.460938 -10.601562 11.078125 -9.8125 11.078125 -8.8125 Z M 11.078125 -8.8125 "/></g></g><g style="fill:#000000;fill-opacity:1;"><g transform="translate(261.636899, 240.050248)"><path style="stroke:none" d="M 4.21875 0 L 4.21875 -29.09375 L 10.46875 -29.09375 L 11.578125 -25.21875 C 12.546875 -26.582031 13.726562 -27.566406 15.125 -28.171875 C 16.53125 -28.785156 18.304688 -29.09375 20.453125 -29.09375 L 23.609375 -29.09375 L 23.609375 -21.453125 L 20.390625 -21.453125 C 17.992188 -21.453125 16.101562 -20.800781 14.71875 -19.5 C 13.332031 -18.207031 12.640625 -15.992188 12.640625 -12.859375 L 12.640625 0 Z M 4.21875 0 "/></g></g><g style="fill:#000000;fill-opacity:1;"><g transform="translate(283.363294, 240.050248)"><path style="stroke:none" d=""/></g></g><g style="fill:#ffffff;fill-opacity:1;"><g transform="translate(72.816607, 360.164781)"><path style="stroke:none" d="M 11.765625 -84.90625 C 13.160156 -84.90625 14.351562 -84.5625 15.34375 -83.875 C 15.84375 -83.476562 16.363281 -83.078125 16.90625 -82.671875 C 17.457031 -82.273438 17.929688 -81.878906 18.328125 -81.484375 C 15.835938 -77.609375 13.351562 -74.132812 10.875 -71.0625 C 8.394531 -67.78125 6.257812 -66.140625 4.46875 -66.140625 C 3.476562 -66.140625 2.832031 -66.585938 2.53125 -67.484375 C 2.132812 -68.273438 1.9375 -69.117188 1.9375 -70.015625 C 1.9375 -72.398438 2.628906 -75.082031 4.015625 -78.0625 C 5.304688 -80.84375 7 -82.878906 9.09375 -84.171875 C 10.082031 -84.660156 10.972656 -84.90625 11.765625 -84.90625 Z M 27.859375 -88.78125 C 27.660156 -89.476562 27.3125 -89.878906 26.8125 -89.984375 C 26.113281 -90.273438 25.421875 -90.273438 24.734375 -89.984375 C 23.929688 -89.679688 23.332031 -89.179688 22.9375 -88.484375 C 22.738281 -88.191406 22.515625 -87.894531 22.265625 -87.59375 C 22.023438 -87.289062 21.800781 -86.941406 21.59375 -86.546875 C 18.8125 -88.929688 16.234375 -90.125 13.859375 -90.125 C 11.273438 -90.125 9.1875 -89.628906 7.59375 -88.640625 C 4.019531 -86.648438 1.289062 -83.71875 -0.59375 -79.84375 C -2.582031 -75.675781 -3.523438 -71.953125 -3.421875 -68.671875 C -3.128906 -63.410156 -0.945312 -60.78125 3.125 -60.78125 C 5.613281 -60.78125 8.097656 -61.875 10.578125 -64.0625 C 13.160156 -66.34375 15.59375 -69.125 17.875 -72.40625 C 18.175781 -72.894531 18.472656 -73.363281 18.765625 -73.8125 C 19.066406 -74.257812 19.414062 -74.679688 19.8125 -75.078125 C 19.507812 -72.203125 20.054688 -69.472656 21.453125 -66.890625 C 22.835938 -64.203125 25.96875 -62.414062 30.84375 -61.53125 C 32.332031 -61.226562 33.867188 -61.078125 35.453125 -61.078125 C 46.578125 -61.078125 60.679688 -66.835938 77.765625 -78.359375 C 78.460938 -78.753906 78.957031 -79.347656 79.25 -80.140625 C 79.445312 -80.941406 79.398438 -81.585938 79.109375 -82.078125 C 78.710938 -82.679688 78.210938 -83.03125 77.609375 -83.125 C 76.816406 -83.125 76.070312 -82.925781 75.375 -82.53125 C 57.40625 -70.414062 43.304688 -65.148438 33.078125 -66.734375 C 28.398438 -67.429688 25.816406 -69.46875 25.328125 -72.84375 C 24.828125 -76.019531 25.421875 -80.09375 27.109375 -85.0625 C 27.703125 -87.050781 27.953125 -88.289062 27.859375 -88.78125 Z M 27.859375 -88.78125 "/></g></g><g style="fill:#ffffff;fill-opacity:1;"><g transform="translate(147.747934, 360.164781)"><path style="stroke:none" d="M -8.796875 -46.625 C -11.078125 -37.488281 -13.457031 -28.875 -15.9375 -20.78125 C -18.425781 -12.6875 -20.957031 -5.113281 -23.53125 1.9375 C -26.113281 8.988281 -28.921875 14.992188 -31.953125 19.953125 C -34.984375 24.921875 -38.1875 28.847656 -41.5625 31.734375 C -44.644531 34.210938 -48.019531 35.453125 -51.6875 35.453125 C -53.875 35.453125 -55.515625 34.707031 -56.609375 33.21875 C -57.109375 32.519531 -57.476562 31.75 -57.71875 30.90625 C -57.96875 30.0625 -58.144531 29.144531 -58.25 28.15625 C -58.34375 27.164062 -58.363281 26.25 -58.3125 25.40625 C -58.269531 24.5625 -58.195312 23.738281 -58.09375 22.9375 C -57 14.59375 -52.382812 4.015625 -44.25 -8.796875 C -40.175781 -15.148438 -35.179688 -21.476562 -29.265625 -27.78125 C -23.359375 -34.09375 -16.535156 -40.375 -8.796875 -46.625 Z M -53.03125 40.8125 C -48.0625 40.8125 -43.296875 39.023438 -38.734375 35.453125 C -30.890625 28.796875 -24.132812 17.722656 -18.46875 2.234375 C -15.59375 -5.410156 -12.8125 -13.726562 -10.125 -22.71875 C -7.445312 -31.707031 -4.816406 -41.316406 -2.234375 -51.546875 C 14.148438 -63.660156 34.160156 -73.046875 57.796875 -79.703125 C 58.492188 -79.796875 59.140625 -80.242188 59.734375 -81.046875 C 60.234375 -81.734375 60.484375 -82.378906 60.484375 -82.984375 C 60.378906 -83.578125 60.082031 -84.117188 59.59375 -84.609375 C 59.195312 -84.910156 58.550781 -84.960938 57.65625 -84.765625 C 35.101562 -78.503906 15.785156 -69.863281 -0.296875 -58.84375 C -0.203125 -59.34375 -0.0820312 -59.863281 0.0625 -60.40625 C 0.21875 -60.957031 0.347656 -61.476562 0.453125 -61.96875 L 1.046875 -64.0625 C 2.035156 -67.832031 3.023438 -71.65625 4.015625 -75.53125 C 5.015625 -79.40625 6.007812 -83.273438 7 -87.140625 C 7.195312 -88.035156 7.148438 -88.679688 6.859375 -89.078125 C 6.359375 -89.578125 5.8125 -89.828125 5.21875 -89.828125 C 4.519531 -89.828125 3.820312 -89.578125 3.125 -89.078125 C 2.425781 -88.679688 1.976562 -88.035156 1.78125 -87.140625 C 0.789062 -83.273438 -0.222656 -79.40625 -1.265625 -75.53125 C -2.304688 -71.65625 -3.320312 -67.832031 -4.3125 -64.0625 C -4.71875 -62.46875 -5.117188 -60.851562 -5.515625 -59.21875 C -5.910156 -57.582031 -6.359375 -55.914062 -6.859375 -54.21875 C -24.734375 -40.71875 -38.335938 -26.816406 -47.671875 -12.515625 C -57.203125 2.085938 -62.46875 14.15625 -63.46875 23.6875 C -64.457031 35.101562 -60.976562 40.8125 -53.03125 40.8125 Z M 11.625 -98.171875 C 11.71875 -99.160156 11.566406 -100.003906 11.171875 -100.703125 C 10.578125 -101.296875 9.734375 -101.59375 8.640625 -101.59375 C 7.546875 -101.59375 6.550781 -101.296875 5.65625 -100.703125 C 4.757812 -99.910156 4.164062 -99.066406 3.875 -98.171875 C 3.675781 -97.273438 3.875 -96.53125 4.46875 -95.9375 C 4.863281 -95.238281 5.660156 -94.890625 6.859375 -94.890625 C 7.847656 -94.890625 8.835938 -95.238281 9.828125 -95.9375 C 10.722656 -96.53125 11.320312 -97.273438 11.625 -98.171875 Z M 11.625 -98.171875 "/></g><g transform="translate(203.760222, 360.164781)"><path style="stroke:none" d="M 42.90625 -88.1875 C 34.257812 -78.65625 26.910156 -72.597656 20.859375 -70.015625 C 14.304688 -67.140625 10.132812 -66.046875 8.34375 -66.734375 C 7.75 -66.734375 7.101562 -66.929688 6.40625 -67.328125 C 5.707031 -67.828125 5.113281 -68.722656 4.625 -70.015625 C 4.125 -71.410156 4.019531 -73.445312 4.3125 -76.125 C 4.519531 -77.507812 4.867188 -79.117188 5.359375 -80.953125 C 5.859375 -82.796875 6.503906 -84.910156 7.296875 -87.296875 C 7.492188 -88.191406 7.445312 -88.890625 7.15625 -89.390625 C 6.851562 -89.878906 6.304688 -90.125 5.515625 -90.125 C 4.816406 -90.226562 4.171875 -90.082031 3.578125 -89.6875 C 2.984375 -89.28125 2.484375 -88.632812 2.078125 -87.75 C -3.472656 -71.5625 -2.179688 -62.820312 5.953125 -61.53125 C 6.359375 -61.425781 6.734375 -61.375 7.078125 -61.375 C 7.421875 -61.375 7.789062 -61.375 8.1875 -61.375 C 9.476562 -61.375 10.914062 -61.546875 12.5 -61.890625 C 14.09375 -62.242188 15.882812 -62.769531 17.875 -63.46875 C 21.84375 -64.757812 26.363281 -67.289062 31.4375 -71.0625 C 34.613281 -73.25 37.691406 -75.929688 40.671875 -79.109375 C 40.671875 -78.710938 40.644531 -78.335938 40.59375 -77.984375 C 40.539062 -77.640625 40.515625 -77.21875 40.515625 -76.71875 C 40.117188 -73.039062 40.960938 -69.765625 43.046875 -66.890625 C 44.941406 -63.910156 49.210938 -62.125 55.859375 -61.53125 C 56.253906 -61.425781 56.898438 -61.375 57.796875 -61.375 C 64.847656 -61.570312 72.097656 -63.660156 79.546875 -67.640625 C 83.222656 -69.617188 86.773438 -71.675781 90.203125 -73.8125 C 93.628906 -75.945312 96.929688 -78.15625 100.109375 -80.4375 C 100.804688 -80.84375 101.300781 -81.441406 101.59375 -82.234375 C 101.789062 -83.023438 101.742188 -83.671875 101.453125 -84.171875 C 100.953125 -84.660156 100.40625 -84.957031 99.8125 -85.0625 C 99.113281 -85.0625 98.414062 -84.863281 97.71875 -84.46875 C 94.84375 -82.28125 91.765625 -80.164062 88.484375 -78.125 C 85.210938 -76.09375 81.738281 -74.132812 78.0625 -72.25 C 70.8125 -68.476562 64.007812 -66.640625 57.65625 -66.734375 C 52.6875 -67.234375 49.40625 -68.476562 47.8125 -70.46875 C 46.226562 -72.445312 45.585938 -74.925781 45.890625 -77.90625 C 46.179688 -80.882812 46.773438 -83.765625 47.671875 -86.546875 L 47.96875 -87.59375 C 47.96875 -87.789062 47.96875 -87.988281 47.96875 -88.1875 C 47.96875 -88.382812 47.96875 -88.535156 47.96875 -88.640625 C 47.769531 -89.234375 47.519531 -89.628906 47.21875 -89.828125 C 46.726562 -90.222656 46.082031 -90.320312 45.28125 -90.125 C 44.6875 -89.925781 43.894531 -89.28125 42.90625 -88.1875 Z M 42.90625 -88.1875 "/></g><g transform="translate(300.441007, 360.164781)"><path style="stroke:none" d="M 11.625 -84.90625 C 12.8125 -84.90625 14.050781 -84.507812 15.34375 -83.71875 C 16.53125 -82.925781 17.523438 -82.082031 18.328125 -81.1875 C 15.441406 -76.914062 13.15625 -73.738281 11.46875 -71.65625 C 9.582031 -69.46875 8.09375 -67.976562 7 -67.1875 C 5.90625 -66.488281 5.007812 -66.140625 4.3125 -66.140625 C 3.320312 -66.140625 2.679688 -66.585938 2.390625 -67.484375 C 1.984375 -68.273438 1.78125 -69.117188 1.78125 -70.015625 C 1.78125 -72.398438 2.476562 -75.082031 3.875 -78.0625 C 5.164062 -80.84375 6.90625 -82.878906 9.09375 -84.171875 C 9.882812 -84.660156 10.726562 -84.90625 11.625 -84.90625 Z M 25.328125 -66 C 27.609375 -62.71875 31.925781 -61.078125 38.28125 -61.078125 C 43.550781 -61.078125 48.71875 -62.117188 53.78125 -64.203125 C 58.945312 -66.191406 63.664062 -68.578125 67.9375 -71.359375 C 70.113281 -72.742188 72.171875 -74.054688 74.109375 -75.296875 C 76.046875 -76.546875 77.8125 -77.71875 79.40625 -78.8125 C 79.40625 -78.90625 79.453125 -78.953125 79.546875 -78.953125 C 79.941406 -79.253906 80.3125 -79.550781 80.65625 -79.84375 C 81.007812 -80.144531 81.382812 -80.394531 81.78125 -80.59375 C 82.476562 -80.988281 82.976562 -81.582031 83.28125 -82.375 C 83.476562 -83.175781 83.425781 -83.773438 83.125 -84.171875 C 82.820312 -84.765625 82.328125 -85.113281 81.640625 -85.21875 C 80.941406 -85.21875 80.242188 -85.015625 79.546875 -84.609375 C 79.148438 -84.410156 78.773438 -84.160156 78.421875 -83.859375 C 78.078125 -83.566406 77.707031 -83.273438 77.3125 -82.984375 C 77.21875 -82.984375 77.117188 -82.929688 77.015625 -82.828125 C 75.523438 -81.835938 73.882812 -80.769531 72.09375 -79.625 C 70.3125 -78.476562 68.425781 -77.257812 66.4375 -75.96875 C 62.46875 -73.488281 58.148438 -71.253906 53.484375 -69.265625 C 49.015625 -67.378906 44.445312 -66.4375 39.78125 -66.4375 C 34.8125 -66.4375 31.582031 -67.53125 30.09375 -69.71875 C 27.613281 -73.394531 27.613281 -81.390625 30.09375 -93.703125 C 31.382812 -99.859375 33.117188 -107.28125 35.296875 -115.96875 C 37.484375 -124.664062 40.164062 -134.722656 43.34375 -146.140625 C 44.4375 -150.210938 45.628906 -154.53125 46.921875 -159.09375 C 48.210938 -163.664062 49.503906 -168.382812 50.796875 -173.25 C 50.898438 -173.945312 50.800781 -174.546875 50.5 -175.046875 C 50 -175.535156 49.453125 -175.78125 48.859375 -175.78125 C 48.160156 -175.78125 47.46875 -175.535156 46.78125 -175.046875 C 46.082031 -174.648438 45.632812 -174.050781 45.4375 -173.25 C 44.144531 -168.382812 42.878906 -163.691406 41.640625 -159.171875 C 40.398438 -154.648438 39.234375 -150.359375 38.140625 -146.296875 C 34.660156 -133.972656 31.753906 -123.191406 29.421875 -113.953125 C 27.085938 -104.722656 25.328125 -97.03125 24.140625 -90.875 C 23.734375 -90.082031 23.304688 -89.3125 22.859375 -88.5625 C 22.421875 -87.820312 22 -87.101562 21.59375 -86.40625 C 18.8125 -88.882812 16.234375 -90.125 13.859375 -90.125 C 11.273438 -90.125 9.140625 -89.628906 7.453125 -88.640625 C 4.078125 -86.753906 1.394531 -83.820312 -0.59375 -79.84375 C -2.582031 -75.675781 -3.578125 -71.953125 -3.578125 -68.671875 C -3.273438 -63.410156 -1.085938 -60.78125 2.984375 -60.78125 C 8.140625 -60.78125 14.691406 -66.835938 22.640625 -78.953125 C 22.546875 -72.992188 23.441406 -68.675781 25.328125 -66 Z M 25.328125 -66 "/></g><g transform="translate(379.543466, 360.164781)"><path style="stroke:none" d="M 11.765625 -84.90625 C 13.160156 -84.90625 14.351562 -84.5625 15.34375 -83.875 C 15.84375 -83.476562 16.363281 -83.078125 16.90625 -82.671875 C 17.457031 -82.273438 17.929688 -81.878906 18.328125 -81.484375 C 15.835938 -77.609375 13.351562 -74.132812 10.875 -71.0625 C 8.394531 -67.78125 6.257812 -66.140625 4.46875 -66.140625 C 3.476562 -66.140625 2.832031 -66.585938 2.53125 -67.484375 C 2.132812 -68.273438 1.9375 -69.117188 1.9375 -70.015625 C 1.9375 -72.398438 2.628906 -75.082031 4.015625 -78.0625 C 5.304688 -80.84375 7 -82.878906 9.09375 -84.171875 C 10.082031 -84.660156 10.972656 -84.90625 11.765625 -84.90625 Z M 27.859375 -88.78125 C 27.660156 -89.476562 27.3125 -89.878906 26.8125 -89.984375 C 26.113281 -90.273438 25.421875 -90.273438 24.734375 -89.984375 C 23.929688 -89.679688 23.332031 -89.179688 22.9375 -88.484375 C 22.738281 -88.191406 22.515625 -87.894531 22.265625 -87.59375 C 22.023438 -87.289062 21.800781 -86.941406 21.59375 -86.546875 C 18.8125 -88.929688 16.234375 -90.125 13.859375 -90.125 C 11.273438 -90.125 9.1875 -89.628906 7.59375 -88.640625 C 4.019531 -86.648438 1.289062 -83.71875 -0.59375 -79.84375 C -2.582031 -75.675781 -3.523438 -71.953125 -3.421875 -68.671875 C -3.128906 -63.410156 -0.945312 -60.78125 3.125 -60.78125 C 5.613281 -60.78125 8.097656 -61.875 10.578125 -64.0625 C 13.160156 -66.34375 15.59375 -69.125 17.875 -72.40625 C 18.175781 -72.894531 18.472656 -73.363281 18.765625 -73.8125 C 19.066406 -74.257812 19.414062 -74.679688 19.8125 -75.078125 C 19.507812 -72.203125 20.054688 -69.472656 21.453125 -66.890625 C 22.835938 -64.203125 25.96875 -62.414062 30.84375 -61.53125 C 32.332031 -61.226562 33.867188 -61.078125 35.453125 -61.078125 C 46.578125 -61.078125 60.679688 -66.835938 77.765625 -78.359375 C 78.460938 -78.753906 78.957031 -79.347656 79.25 -80.140625 C 79.445312 -80.941406 79.398438 -81.585938 79.109375 -82.078125 C 78.710938 -82.679688 78.210938 -83.03125 77.609375 -83.125 C 76.816406 -83.125 76.070312 -82.925781 75.375 -82.53125 C 57.40625 -70.414062 43.304688 -65.148438 33.078125 -66.734375 C 28.398438 -67.429688 25.816406 -69.46875 25.328125 -72.84375 C 24.828125 -76.019531 25.421875 -80.09375 27.109375 -85.0625 C 27.703125 -87.050781 27.953125 -88.289062 27.859375 -88.78125 Z M 27.859375 -88.78125 "/></g><g transform="translate(454.474799, 360.164781)"><path style="stroke:none" d="M 7.296875 -63.46875 C 7.597656 -64.65625 7.550781 -65.597656 7.15625 -66.296875 C 6.65625 -67.085938 6.007812 -67.484375 5.21875 -67.484375 C 4.320312 -67.679688 3.476562 -67.382812 2.6875 -66.59375 C 2.28125 -66.195312 1.90625 -65.75 1.5625 -65.25 C 1.21875 -64.75 0.945312 -64.253906 0.75 -63.765625 C 0.25 -62.671875 0.25 -61.722656 0.75 -60.921875 C 1.238281 -60.128906 1.882812 -59.734375 2.6875 -59.734375 C 3.570312 -59.640625 4.515625 -59.988281 5.515625 -60.78125 C 6.304688 -61.570312 6.898438 -62.46875 7.296875 -63.46875 Z M 7.296875 -63.46875 "/></g></g></g></svg>